<?xml version="1.0" encoding="utf-8"?>
<!-- Generator: Adobe Illustrator 25.2.1, SVG Export Plug-In . SVG Version: 6.00 Build 0)  -->
<svg version="1.1" id="Layer_1" xmlns="http://www.w3.org/2000/svg" xmlns:xlink="http://www.w3.org/1999/xlink" x="0px" y="0px"
	 viewBox="0 0 1920 1080" style="enable-background:new 0 0 1920 1080;" xml:space="preserve">
<style type="text/css">
	.st0{fill:#FC0000;}
	.st1{fill:#E1DADA;}
	.st2{fill:#204D9A;}
	.st3{fill:#E0DBDB;}
	.st4{fill:#D9DDEE;}
	.st5{fill:#754736;}
	.st6{fill:#CACEDE;}
	.st7{fill:#BABECD;}
	.st8{fill:#E9E9E9;}
	.st9{fill:#CFCFCF;}
	.st10{fill:#BFC3D2;}
	.st11{fill:#B5B9C7;}
	.st12{fill:#89664D;}
	.st13{fill:#C1C5D4;}
	.st14{fill:#F4ECEC;}
</style>
<g>
	<g>
		<rect x="1444.72" y="210" class="st0" width="149.97" height="673.65"/>
		<rect x="1431.93" y="273.03" class="st1" width="149.97" height="610.61"/>
		<path class="st0" d="M1496.33,403.38h-64.41v-83.28h101.36v46.33C1533.28,386.83,1516.74,403.38,1496.33,403.38z"/>
		<g>
			<g>
				<g>
					<g>
						<g>
							<g>
								<polygon class="st2" points="1449.34,415.52 1451.21,415.54 1451.31,407.49 1409.37,400.81 1409.59,382 1416.83,382.08 
									1416.85,380.26 1407.75,380.16 1407.48,402.35 1449.42,409.03 								"/>
							</g>
						</g>
					</g>
				</g>
			</g>
		</g>
		<g>
			<g>
				<g>
					<g>
						<g>
							
								<rect x="1421.18" y="371.13" transform="matrix(-0.9999 -0.0114 0.0114 -0.9999 2900.8816 779.6165)" class="st3" width="62.95" height="20.85"/>
						</g>
					</g>
				</g>
			</g>
		</g>
		<g>
			<g>
				<g>
					
						<rect x="1445.59" y="414.04" transform="matrix(-1 -1.224647e-16 1.224647e-16 -1 2900.5229 883.2134)" class="st2" width="9.34" height="55.13"/>
				</g>
			</g>
		</g>
		<g>
			<g>
				<g>
					<g>
						<g>
							<path class="st0" d="M1460.86,452.72c0,0-2.1,1.78-3.34,2.09c0,0-2.27,0.39-3.88,0.77c-0.51,0.12-0.95,0.24-1.23,0.35
								c-1.17,0.46-3.65,1.83-6.68,2.08c-3.03,0.25-16.09-2.33-16.09-2.33l-0.16-8.26l-1.56-7.44c0,0,16.34-11.96,19.17-12.55
								c0.28-0.06,0.55-0.1,0.81-0.12c2.42-0.25,4.23,0.67,5.5,0.7c0.47,0.01,5.07,0.48,5.77,1.75c0.97,1.75,0.95,3.45,0.35,4.8
								c0,0,1.74,3.53,1.21,6.31c0,0,1.71,3.19,0.16,6.52C1460.88,447.38,1462.27,450.86,1460.86,452.72z"/>
						</g>
					</g>
				</g>
			</g>
		</g>
		<g>
			<path class="st2" d="M1279.55,409.41c0,0-19.77,57.31-17.43,59.14c2.34,1.83,55.01,15.43,55.01,15.43s-6.97,46.83-9.9,46.42
				c-4.08-0.57-77.22-39.3-79.32-44.22c-2.1-4.92,14.45-32.57,14.45-32.57S1267.03,400.72,1279.55,409.41z"/>
		</g>
		<path class="st2" d="M1355.09,871.84c0,0,16.42-3.38,16.99-3.88c0.57-0.5,3.99-6.88,6.56-5.82c2.57,1.06,2.74,8.76,5.25,10.02
			c2.51,1.26,22.41,13.83,24.87,16.14c2.46,2.31,17.33,0.67,19.11,4.73c1.78,4.06,2.1,13.7-20.16,11.81
			c-22.26-1.89-47.56,2.06-52.39-0.41C1350.48,901.96,1353.67,878.08,1355.09,871.84z"/>
		<path class="st2" d="M1222.31,862.94c0,0,16.76-0.78,17.41-1.19c0.64-0.4,5.07-6.17,7.43-4.72c2.36,1.44,1.26,9.07,3.54,10.7
			c2.28,1.63,19.85,17.14,21.89,19.8c2.05,2.66,16.99,3.36,18.09,7.64c1.09,4.28-0.18,13.85-21.84,8.52
			c-21.66-5.33-47.29-5.36-51.65-8.55C1212.81,891.95,1219.89,868.88,1222.31,862.94z"/>
		<g>
			<path class="st0" d="M1324.91,376c-0.12,0.31-0.23,0.63-0.34,0.94c-0.63,1.82-1.17,3.65-1.63,5.43
				c-2.51,9.81-2.51,18.32-2.51,18.32c1.48,5.91-24.34-17.97-24.34-17.97s1.37-19.6-0.71-41.46
				C1293.31,319.4,1324.91,376,1324.91,376z"/>
		</g>
		<g>
			<path class="st4" d="M1335.77,495.37c-0.65,2.47-1.32,5.03-1.98,7.72c-0.31,1.23-0.59,2.52-0.85,3.84
				c-3.75,18.99-1.79,46.41,1.33,77.25c0,0-13.8,4.21-86.91,15.65c-2.9-92.15,15.08-178.07,15.08-178.07
				c7.55-23.78,15.87-27.48,32.87-39.98c0,0,3.29,0.13,26.4,16.2c1.62,1.12,9.1,15.66,13.79,31.83
				C1343.77,458.42,1341.64,473.23,1335.77,495.37z"/>
		</g>
		<path class="st2" d="M1315.41,469.68c-1.55,2.61-3.36,5.05-5.32,7.26c-5.56,6.27-12.39,10.76-18.34,12.39
			c-3.15,0.86-6.05,0.91-8.38,0c-0.21-0.08-0.42-0.17-0.63-0.27c-11.62-5.7-21.59-73.03-0.26-84.9c0,0,10.19-5.02,20.12-0.98
			c9.92,4.03,16.99,21.02,18.31,45.78C1321.32,456.4,1319.07,463.52,1315.41,469.68z"/>
		<g>
			<path class="st0" d="M1340.09,321.1c0,0,8.7,12.68,5.23,15.09c-2.87,1.99,4.98,14.5,6.05,16.57c1.07,2.06-5.14,4.2-6.36,5.7
				c-1.22,1.5-3.59,18.83-8.78,19.82c-5.19,0.99-29.57-4.84-36.62-10.75c-7.06-5.91-15.16-34.78-12.06-47.54
				C1290.64,307.21,1324.76,298.95,1340.09,321.1z"/>
		</g>
		<g>
			<path class="st5" d="M1341.91,323.69c0,0,1.35-6.51-13.43-15.96c-14.78-9.45-33.55,3.19-36.34,4.17
				c-2.79,0.98-14.98,14.52-8.04,30.45c11.6,26.62,12.43,25.78,12.43,25.78s1.18-16.61,6.21-18.24c5.46-1.77,13.02-3.96,13.02-3.96
				s-6.05-12.07,1.35-14.53C1324.53,328.94,1333.98,321.63,1341.91,323.69z"/>
		</g>
		<path class="st0" d="M1312.59,347.14c-0.52-1.43-2.88-7.83-8.07-6.36c-5.19,1.46-2.63,9.37,1.92,13.7
			C1310.98,358.81,1315.48,355.12,1312.59,347.14z"/>
		<path class="st2" d="M1343.7,323.53c0,0-16.15-39.48-49.8-21.33c-39.15,21.12-4.36,52.46-4.36,52.46S1299.02,336.72,1343.7,323.53
			z"/>
		<path class="st0" d="M1342.19,320.1c0,0,6.02-0.11,9.81,0.61c11.66,2.22-24.91,8.34-28.01,9.77
			C1295.11,343.78,1342.19,320.1,1342.19,320.1z"/>
		<path class="st2" d="M1308.24,407.44c0,0-16.79-15.54-32.35,4.84c-8.56,11.21-0.76,25.11,46.69,63.21c0,0,19.01,18.79,24.58,19.87
			c20.14,3.9,79.4-30.19,84.76-34.52l-3.92-21.41c0,0-22.43,10.73-37.26,14.56c-16.12,4.16-29.6,9.74-29.6,9.74L1308.24,407.44z"/>
		<polygon class="st6" points="1295.31,381.78 1295.79,378.54 1322.11,393.63 1321.7,397.98 		"/>
		<polygon class="st2" points="1222.31,862.94 1226.76,848.59 1246.76,851.38 1244.01,864.3 		"/>
		<polygon class="st2" points="1353.83,864.02 1355.09,871.84 1376.85,867.93 1375.48,856.24 		"/>
		<g>
			<path class="st4" d="M1302.56,613.2c0,0-3.38,28.03-7.09,56.77c-0.84,6.54-1.71,13.11-2.55,19.4
				c-2.77,20.65-5.33,38.21-6.43,41.29c-2.95,8.3-33.14,135.15-33.14,135.15s-36.5,3.92-37.58,0.52c0,0,28.32-142.37,27.92-147.07
				c-0.4-4.7,4.35-137.32,4.35-137.32S1300.94,605.57,1302.56,613.2z"/>
		</g>
		<g>
			<path class="st4" d="M1331.8,572.94c0,0,28.52,129.7,30.93,139.62c2.42,9.93,25.79,159.28,25.79,159.28s-15.69,10.21-37.48,6.15
				c0,0-33.21-157.27-35.79-162.03c-10.02-18.46-44.72-110.01-49.56-122.81c-4.84-12.8-18.22-25.73-18.22-25.73
				S1282.42,547.53,1331.8,572.94z"/>
		</g>
		<path class="st7" d="M1295.47,669.96c-0.84,6.54-1.71,13.11-2.55,19.4c0,0,0,0,0-0.01c-10.27-25.23-23.6-86.2-23.8-87.15
			C1270.55,605.97,1295.47,669.96,1295.47,669.96z"/>
		<path class="st3" d="M1427.91,381.2c0,5.76-3.02,10.42-6.73,10.42c-3.72,0-6.73-4.67-6.73-10.42c0-5.76,3.02-10.43,6.73-10.43
			C1424.9,370.77,1427.91,375.44,1427.91,381.2z"/>
		<path class="st0" d="M1490.81,381.91c0,5.76-3.02,10.43-6.73,10.43c-3.72,0-6.73-4.67-6.73-10.43s3.02-10.43,6.73-10.43
			C1487.79,371.48,1490.81,376.15,1490.81,381.91z"/>
		<rect x="1431.93" y="210" class="st0" width="149.97" height="146.32"/>
		<path class="st2" d="M1315.41,469.68c-1.55,2.61-3.36,5.05-5.32,7.26c-15.93-15.98-27.8-37.57-28.16-38.25
			C1286.74,444.91,1315.41,469.68,1315.41,469.68z"/>
		<rect x="1612.36" y="825.52" class="st0" width="61.89" height="79.75"/>
		<rect x="1612.36" y="847.88" class="st8" width="61.89" height="57.39"/>
		<rect x="1612.36" y="902.16" class="st9" width="61.89" height="3.11"/>
		<g>
			<path class="st2" d="M1629.9,869.8c-7.57,0-13.24-2.43-16.84-7.23c-9.35-12.44-1.03-36.05-0.7-37.06h1.38
				c-0.08,0.24-8.51,24.38,0.43,36.27c3.33,4.43,8.62,6.67,15.73,6.67c17.18,0,27.65-8.99,33.4-16.53
				c6.77-8.87,9.61-19.65,9.85-26.42h1.11c-0.22,6.47-2.43,17.49-9.85,27.22C1658.46,860.52,1647.65,869.8,1629.9,869.8z"/>
		</g>
		<path class="st0" d="M1324.57,376.94c-0.63,1.82-1.17,3.65-1.63,5.43c-12.51-2.89-20.55-12.99-20.55-12.99
			C1310.77,373.88,1324.57,376.94,1324.57,376.94z"/>
	</g>
	<g>
		<path class="st0" d="M745.81,473.66c0,0,7.26-7.17,8.41-8.24c1.15-1.06,5.67-1.94,10.95-2.54s12.73,0.69,13.33,1.31
			c0.6,0.62,1.53,1,1.78,3.09c0.25,2.09-0.92,3.96-0.92,3.96s1.68,2.47,0.15,4.7c0,0,1.42,2.39-0.79,4.68c0,0,1.32,2.37-0.33,3.86
			c0,0-4.53,0.88-6.1,1.64c-1.57,0.76-11.13,2.02-20.51,1.98C751.79,488.09,742.95,485.38,745.81,473.66z"/>
		<path class="st0" d="M761.21,473.46c0,0-1.77,4.59-3,5.65c-1.23,1.06,8.68,7.53,8.68,7.53S767.41,475.53,761.21,473.46z"/>
		<path class="st0" d="M751.79,488.09c0,0-3.98,1.51-4.53,1.82c-0.55,0.31-11.05-12.3-1.45-16.25
			C755.41,469.71,751.79,488.09,751.79,488.09z"/>
		<g>
			<path class="st10" d="M680.86,435.27c0,0,1.01,39.55,4.14,40.41c3.14,0.85,62.22-5.59,62.22-5.59s4.45,19.96,1.31,20.64
				c-4.38,0.94-86.64,17.53-90.83,13.72c-4.19-3.81,4.45-31.57,4.45-31.57S664.53,431.74,680.86,435.27z"/>
		</g>
		<path class="st0" d="M777.11,464.3c0,0-13.36,1.82-13.3,3.77c0.06,1.95,1.42,2.64,1.42,2.64l-5.12,2.97c0,0-2.14,3.67,2.97,4.67
			c0,0-2.4,3.24,2.67,3.69c0,0-0.51,2.77,1.8,3.34c2.31,0.57,10.85-0.91,10.85-0.91s1.64-1.04,0.42-3.88c0,0,2.26-2.08,0.76-4.65
			c0,0,1.52-1.92-0.13-4.68c0,0,3-4.51-0.94-7.06C778.5,464.18,777.67,464.21,777.11,464.3z"/>
		<polygon class="st2" points="761.29,540.48 755.41,537.72 817.59,432.6 823.48,435.36 		"/>
		<path class="st2" d="M705.9,871.82c0,0,17.93-3.38,18.55-3.88c0.62-0.5,4.36-6.89,7.16-5.83c2.8,1.06,2.99,8.77,5.74,10.03
			c2.75,1.26,24.48,13.85,27.17,16.16c2.69,2.31,18.93,0.67,20.87,4.73c1.95,4.06,2.29,13.71-22.02,11.82
			c-24.31-1.89-51.95,2.06-57.23-0.41C700.87,901.96,704.36,878.06,705.9,871.82z"/>
		<path class="st2" d="M560.87,862.91c0,0,18.31-0.78,19.01-1.19c0.7-0.4,5.54-6.18,8.12-4.73c2.58,1.45,1.38,9.08,3.86,10.71
			c2.48,1.64,21.68,17.16,23.91,19.82c2.24,2.66,18.56,3.36,19.75,7.64c1.19,4.28-0.2,13.86-23.86,8.53
			c-23.66-5.33-51.65-5.37-56.42-8.56C550.49,891.94,558.23,868.85,560.87,862.91z"/>
		<g>
			<path class="st0" d="M669.9,375.38c0,0-0.12,1.37-0.25,3.5c-0.1,1.57-0.21,3.54-0.3,5.67c-0.24,5.78-0.3,12.73,0.57,15.9
				c1.62,5.91-28.44-18.12-28.44-18.12s1.49-19.6-0.77-41.48C638.43,318.97,669.9,375.38,669.9,375.38z"/>
		</g>
		<g>
			<g>
				<g>
					<g>
						<g>
							<path class="st0" d="M777.96,531.64c0,0-2.98,0.58-4.33,0.28c0,0-2.38-0.72-4.13-1.14c-0.55-0.13-1.04-0.23-1.37-0.27
								c-1.37-0.15-4.48-0.1-7.52-1.3c-3.04-1.19-14.15-9.57-14.15-9.57l4.31-7.32l3-7.23c0,0,21.63-2.88,24.66-2.08
								c0.3,0.08,0.58,0.17,0.84,0.27c2.45,0.91,3.69,2.57,4.89,3.19c0.44,0.23,4.6,2.8,4.58,4.23c-0.02,1.99-0.95,3.47-2.26,4.37
								c0,0-0.24,3.92-2.25,6.1c0,0-0.09,3.6-3.37,5.79C780.86,526.97,780.31,530.67,777.96,531.64z"/>
						</g>
					</g>
				</g>
			</g>
		</g>
		<g>
			<path class="st0" d="M684.8,495.07c-0.71,2.47-1.44,5.03-2.17,7.72c-0.33,1.23-0.64,2.52-0.93,3.84
				c-4.1,19-1.95,46.44,1.46,77.31c0,0-15.08,4.21-94.92,15.66c-3.17-92.22,16.47-178.2,16.47-178.2
				c5.93-20.02,17.34-27.5,35.9-40.01c0,0,3.59,0.13,28.83,16.21c1.77,1.13,9.95,15.67,15.06,31.85
				C693.54,458.09,691.21,472.91,684.8,495.07z"/>
		</g>
		<path class="st4" d="M636.74,489.02c-3.44,0.86-6.61,0.91-9.15,0c-0.23-0.08-0.46-0.17-0.68-0.27
			c-12.69-5.7-23.58-73.08-0.29-84.96c0,0,11.14-5.02,21.98-0.99c10.84,4.04,18.56,21.03,20,45.82
			C669.73,468.21,650.92,485.48,636.74,489.02z"/>
		<g>
			<path class="st0" d="M669.64,378.88c-0.1,1.57-0.26,4.6-0.35,6.73c-9.84-6.09-17.77-14.88-20.18-17.3
				C653.64,372.31,669.64,378.88,669.64,378.88z"/>
		</g>
		<g>
			<path class="st0" d="M703.22,331.13c0,0,4.75,14.66,0.31,15.94c-3.67,1.06,0.26,15.3,0.67,17.58c0.41,2.28-6.78,2.49-8.56,3.57
				c-1.78,1.07-10.14,16.9-15.88,16.32c-5.74-0.58-29.14-13.32-34.48-21.03c-5.34-7.71-3.96-37.63,3.6-48.9
				C656.46,303.34,694.78,305.5,703.22,331.13z"/>
		</g>
		<g>
			<path class="st5" d="M704.24,334.15c0,0,3.62-5.81-8.56-19.17c-12.17-13.36-36.02-6.82-39.25-6.71
				c-3.23,0.11-20.54,9.44-18.72,26.68c3.03,28.8,4.29,28.21,4.29,28.21s5.17-16.04,10.97-16.11c6.29-0.08,16.48,0.63,16.48,0.63
				s-2.2-13.3,6.35-13.46C684.35,334.03,696.68,329.84,704.24,334.15z"/>
		</g>
		<path class="st0" d="M665.73,347.88c-0.05-1.52-0.34-8.31-6.24-8.44c-5.9-0.13-5.92,8.16-2.66,13.63
			C660.09,358.55,666.04,356.34,665.73,347.88z"/>
		<path class="st0" d="M706.15,334.52c0,0-3.39-42.41-44.6-34.99c-47.94,8.63-22.37,48.76-22.37,48.76S655.15,333.96,706.15,334.52z
			"/>
		<path class="st0" d="M705.75,330.8c0,0,6.31,1.66,10,3.46c11.39,5.55-28.77,0.63-32.48,1.08
			C648.68,339.54,705.75,330.8,705.75,330.8z"/>
		<path class="st4" d="M660.42,417.95c0,0-7.27-22.15-33.53-12.24c-14.45,5.45-14.71,21.76,8.27,78.02c0,0,7.2,25.58,11.83,29.26
			c16.74,13.29,97.84,12.3,105.35,11.2l2.63-19.6c0,0-27.23-1.8-43.38-5.81c-17.55-4.36-33.43-6.19-33.43-6.19L660.42,417.95z"/>
		<polygon class="st4" points="640.61,381.4 641.75,376.96 669.88,393.26 669.44,397.61 		"/>
		<polygon class="st2" points="560.87,862.91 565.74,848.55 587.58,851.34 584.58,864.27 		"/>
		<polygon class="st2" points="704.52,863.99 705.9,871.82 729.67,867.9 728.17,856.2 		"/>
		<g>
			<path class="st0" d="M648.53,612.98c0,0-3.69,28.06-7.74,56.81c-0.92,6.54-1.86,13.12-2.78,19.41
				c-3.02,20.66-5.83,38.24-7.02,41.32c-3.22,8.3-39.51,133.74-39.51,133.74s-32.63,3.4-33.8,0c0,0,27-140.44,26.57-145.15
				c-0.44-4.7,4.75-137.42,4.75-137.42S646.76,605.35,648.53,612.98z"/>
		</g>
		<g>
			<path class="st0" d="M680.46,572.69c0,0,31.15,129.79,33.79,139.72c2.64,9.93,23.69,153.62,23.69,153.62s-13.01,11.87-36.81,7.8
				c0,0-35.94-153.26-38.76-158.02c-10.94-18.47-48.85-110.09-54.13-122.9c-5.28-12.81-19.9-25.75-19.9-25.75
				S626.53,547.27,680.46,572.69z"/>
		</g>
		<polygon class="st2" points="786.26,483.4 782.37,479.52 749.83,458.11 748.41,459.82 780.95,481.23 		"/>
		<path class="st0" d="M754.63,465.32c0,0,8.8,2.61,12.9,5.92c0.93,0.75,1.67,1.62,1.24,2.67c-0.43,1.05-2.68,1.83-6.56,0.87
			c-3.88-0.96-9.38-0.62-9.38-0.62S749.17,472.13,754.63,465.32z"/>
		<path class="st0" d="M640.78,669.79c-0.92,6.54-1.86,13.12-2.78,19.41c0,0,0,0,0-0.01c-11.21-25.25-25.78-86.26-26-87.21
			C613.57,605.76,640.78,669.79,640.78,669.79z"/>
		<path class="st11" d="M636.74,489.02C636.74,489.02,636.74,489.02,636.74,489.02c-3.44,0.86-6.61,0.92-9.16,0
			c-2.04-12.77-6.39-43.56-6.39-43.56s9.56,29.08,12.1,33.65C635.83,483.67,636.74,489.02,636.74,489.02z"/>
	</g>
	<g>
		<g>
			<g>
				<polygon class="st0" points="882.98,409.83 880.05,409.83 880.05,397.53 945.9,388.05 945.9,359.32 934.55,359.32 
					934.55,356.54 948.83,356.54 948.83,390.44 882.98,399.92 				"/>
			</g>
		</g>
		<g>
			<g>
				<g>
					<g>
						<g>
							<g>
								<g>
									<path class="st0" d="M901.29,542.35c0,0-10.43-5.34-12.04-6.11c-1.61-0.77-6.33-0.2-11.63,0.92
										c-5.3,1.12-11.71,5.03-11.97,5.91c-0.26,0.87-0.96,1.6-0.15,3.95c0.8,2.35,2.76,4.03,2.76,4.03s-0.36,3.22,2.2,5.13
										c0,0-0.19,3.06,3.03,4.8c0,0-0.11,3,2.32,4.08c0,0,4.73-0.56,6.59-0.27c1.86,0.29,11.54-1.55,20.39-4.75
										C902.78,560.03,909.8,554.11,901.29,542.35z"/>
								</g>
							</g>
						</g>
					</g>
				</g>
			</g>
		</g>
		<g>
			<g>
				<g>
					<g>
						<g>
							<path class="st0" d="M988.06,448.03c0,0-16.84,63.48-21.67,65.82c-4.83,2.33-65.11,28.51-65.11,28.51l1.49,17.68
								c0,0,59.37-13.09,76.97-23.4c17.87-10.47,32.27-67.99,32.27-67.99S997.35,443.17,988.06,448.03z"/>
						</g>
					</g>
				</g>
			</g>
		</g>
		<g>
			<g>
				<g>
					<g>
						<g>
							<path class="st0" d="M1110.3,466.88c0,0,22.23,35.4,24.8,41.38c6.85,15.92,8.62,73.08,11.75,76.53
								c1.42,1.57,16.33,1.21,16.33,1.21s0.43-75.01-2.2-82.27c-8.67-23.92-17.05-39.8-20.75-48.35
								C1136.53,446.83,1110.3,466.88,1110.3,466.88z"/>
						</g>
					</g>
				</g>
			</g>
		</g>
		<g>
			<g>
				<g>
					<g>
						<g>
							<path class="st0" d="M1040.99,629.31c-9.55-11.38-19.2-32.64-19.29-32.86l1.14-0.46c0.1,0.21,9.68,21.33,19.13,32.59
								L1040.99,629.31z"/>
						</g>
					</g>
				</g>
			</g>
		</g>
		<g>
			<g>
				<g>
					<g>
						<g>
							<path class="st0" d="M1039.01,626.7c-0.11-0.1-11.25-9.81-17.26-18.43l1.03-0.65c5.93,8.5,16.95,18.11,17.06,18.21
								L1039.01,626.7z"/>
						</g>
					</g>
				</g>
			</g>
		</g>
		<g>
			<g>
				<g>
					<g>
						<g>
							<path class="st2" d="M1029.96,404.46c0,0-29.07,9.27-33.13,15.61c-4.07,6.34-13.78,35.59-13.78,35.59s18.25,6.04,20.92,6.77
								c2.67,0.73,0.96,16.83,3.97,35.77c3.01,18.95-6.37,87.54-7.59,90.32c0,0,22.13,9.77,112.23,0.19c0,0-3.55-26.97-3.22-41.81
								c0.26-12.16,2.66-75.48,2.66-75.48l10.52-54.31c0,0-8.46-12.57-46.04-17.64C1052.61,396.25,1029.96,404.46,1029.96,404.46z"
								/>
						</g>
					</g>
				</g>
			</g>
		</g>
		<g>
			<g>
				<g>
					<g>
						<g>
							<path class="st0" d="M1077.47,362.3c-0.01,0.02-0.01,0.02-0.01,0.02c-1.86,6.06-4.38,11.93-7.36,17.04
								c-10.33,17.66-40.44,22.54-48.04-20.58c-1.44-8.16-1.46-14.96-0.62-20.6c3-20.08,16.98-25.43,16.98-25.43
								c10.63-2.16,29.81-2.43,38.26,9.86C1082.67,331.35,1082.04,347.4,1077.47,362.3z"/>
						</g>
					</g>
				</g>
			</g>
		</g>
		<g>
			<g>
				<g>
					<g>
						<g>
							<path class="st2" d="M1077.47,362.3c-0.01,0.02-0.01,0.02-0.01,0.02s-1.48,0.62-8.82-9.21c-1.47-1.97-2.08-0.32-2.72-1.19
								l-9.42-1.96c0,0,6.47-15.22-5.65-17.37c-12.36-2.19-29.42,5.58-29.42,5.58c3-20.08,16.98-25.43,16.98-25.43
								c10.63-2.16,29.81-2.43,38.26,9.86C1082.67,331.35,1082.04,347.4,1077.47,362.3z"/>
						</g>
					</g>
				</g>
			</g>
		</g>
		<g>
			<g>
				<g>
					<g>
						<g>
							<path class="st0" d="M1063.04,345.73c0.18-2.99,5.79-6.37,9.37-0.54c3.59,5.82-3.88,13.68-6.36,12.65
								C1063.58,356.81,1062.74,350.67,1063.04,345.73z"/>
						</g>
					</g>
				</g>
			</g>
		</g>
		<g>
			<g>
				<g>
					<g>
						<g>
							<path class="st0" d="M1083.08,400.5c-1.65,2.86-3.38,5.35-5.16,7.52c-12.48,15.26-26.97,14.71-26.97,14.71
								c-8.86-0.73-13.57-6.16-16.04-11.04c-2.13-4.22-2.58-8.03-2.58-8.03l5.27-1.8c0.65-1.97,0.87-5.15,0.89-8.43
								c0.03-5.84-0.59-11.97-0.59-11.97s38.25-21.41,35.16-7.72c-1.41,6.25-1.54,13.17-0.59,16.8
								C1074.23,397.29,1077.1,398.29,1083.08,400.5z"/>
						</g>
					</g>
				</g>
			</g>
		</g>
		<g>
			<g>
				<g>
					<g>
						<g>
							<path class="st2" d="M1121.15,415.58c0,0,11.94,9.7,21.64,40.58l-36.16,16.24l-15.36-33.73L1121.15,415.58z"/>
						</g>
					</g>
				</g>
			</g>
		</g>
		<g>
			<g>
				<g>
					<g>
						<g>
							<path class="st0" d="M1054.84,391.97c8.59-2.38,13.71-9.48,13.78-9.58l-0.79-0.5c-0.09,0.13-9.14,12.64-23.22,9.41
								l-0.23,0.88C1048.26,393.07,1051.77,392.82,1054.84,391.97z"/>
						</g>
					</g>
				</g>
			</g>
		</g>
		<g>
			<g>
				<g>
					<g>
						<g>
							<path class="st0" d="M1107.07,465.37l0.84-0.63c-0.11-0.14-11.37-13.75-13.67-25.33l-1.05,0.19
								C1095.54,451.43,1106.96,465.23,1107.07,465.37z"/>
						</g>
					</g>
				</g>
			</g>
		</g>
		<g>
			<g>
				<g>
					<g>
						<g>
							<path class="st0" d="M1105.06,462.72l0.57-0.85c-0.11-0.06-10.76-6.5-13.34-13.83l-1.01,0.32
								C1093.98,456.03,1104.6,462.45,1105.06,462.72z"/>
						</g>
					</g>
				</g>
			</g>
		</g>
		<g>
			<g>
				<g>
					<path class="st0" d="M978.8,525.38c-2.25-6.24-8.24-11.06-8.3-11.1l0.64-0.72c0.25,0.2,6.27,5.03,8.61,11.52L978.8,525.38z"/>
				</g>
			</g>
		</g>
		<g>
			<path class="st0" d="M1082.06,343.38c0,0-31.63-14.45-63.79-2.83c0,0-4.56-39.71,34.44-38.59
				C1089.36,302.99,1082.55,338.74,1082.06,343.38z"/>
		</g>
		<g>
			<path class="st0" d="M1062.33,337.62c0,0-27.54,9.03-46.25,8.14c-18.71-0.89,2.04-9.39,2.04-9.39S1032.47,329.63,1062.33,337.62z
				"/>
		</g>
		<g>
			<path class="st0" d="M1075.79,476.41c0,0,13.76-55.8,28.12-70.61c0,0-0.9-1.77-8.22-2.54c0,0-18.52,17.68-28.11,65.57
				C1067.58,468.83,1070.09,480.39,1075.79,476.41z"/>
		</g>
		<g>
			<path class="st0" d="M1036.95,482.31c0,0-19.02-55.44-14.84-75.15c0,0-1.97,0.37-8.65,3.32c0,0-5.7,23.73,12.32,69.4
				C1025.78,479.87,1034.26,488.52,1036.95,482.31z"/>
		</g>
		<g>
			<g>
				<g>
					<g>
						<g>
							<g>
								<path class="st2" d="M1084.8,871.75c0,0-12.47,4.66-18.47,7.56c-6,2.91-29.91,5.49-32.19,7.63
									c-2.28,2.14-1.72,13.23,2.2,13.83c3.92,0.61,32.62,2.5,42.14,0.19c9.51-2.31,27.47,0.91,31.4-0.44
									c3.93-1.35,0.94-21.52-0.69-26.03C1107.55,869.98,1084.8,871.75,1084.8,871.75z"/>
							</g>
						</g>
					</g>
				</g>
			</g>
		</g>
		<g>
			<g>
				<g>
					<g>
						<g>
							<g>
								<path class="st2" d="M1084.82,865.82l-0.05,8.56c0,0,17.98,2.82,24.4,0.11l-0.63-9.39L1084.82,865.82z"/>
							</g>
						</g>
					</g>
				</g>
			</g>
		</g>
		<g>
			<g>
				<g>
					<g>
						<g>
							<g>
								<path class="st2" d="M996.61,874.45c0,0-13.75,5.92-19.66,8.99c-5.91,3.08-27.98,4.95-30.2,7.15
									c-2.22,2.21-1.61,13.52,2.32,14.01c3.94,0.49,32.69,1.58,42.12-0.99c9.44-2.57,27.48,0.14,31.37-1.32
									c3.89-1.46,0.26-21.54-1.51-26C1019.3,871.84,996.61,874.45,996.61,874.45z"/>
							</g>
						</g>
					</g>
				</g>
			</g>
		</g>
		<g>
			<g>
				<g>
					<g>
						<g>
							<g>
								<path class="st2" d="M996.45,868.32l0.22,8.55c0,0,18.06,2.32,24.39-0.57l-0.92-9.37L996.45,868.32z"/>
							</g>
						</g>
					</g>
				</g>
			</g>
		</g>
		<path class="st0" d="M1112.5,582.42L1112.5,582.42c-0.19-15.51-0.79-40.38-2.61-53.05c0,0-35.48-52.65-37.95-60.45
			c0,0-29.45-0.81-43.76,1.87c0,0-21.75,53.28-22.28,62.55c0,0-5.25,44.2-5.56,55.19c-13.55,74.25-13.36,107.86-15.24,117.61
			c-2.92,15.19-0.93,43.67-0.93,49.16c0,9.99,5.9,115.53,7.14,116.11c1.24,0.59,30.51,0.45,33-1.02
			c2.47-1.46-1.09-122.11,0.46-137.37c1.56-15.27,24.41-100.22,24.41-100.22c2.31-1.25,3.96,1.04,4.26,6.04
			c0.31,4.99,12.55,86.74,13.49,92.02c0.93,5.28,10.25,136.08,10.25,136.08s34.83,1.02,35.15-1.34c0,0-0.23-139.79-0.54-145.77
			C1111.48,714.16,1114.37,630.96,1112.5,582.42z"/>
		<g>
			<g>
				<g>
					<g>
						<g>
							<g>
								<path class="st0" d="M1042.11,629.8c-9.55-11.38-19.2-32.64-19.29-32.86l1.14-0.46c0.09,0.21,9.68,21.33,19.13,32.59
									L1042.11,629.8z"/>
							</g>
						</g>
					</g>
				</g>
			</g>
		</g>
		<g>
			<g>
				<g>
					<g>
						<g>
							<g>
								<path class="st0" d="M1040.12,627.2c-0.11-0.1-11.25-9.81-17.26-18.43l1.03-0.65c5.93,8.5,16.95,18.11,17.06,18.21
									L1040.12,627.2z"/>
							</g>
						</g>
					</g>
				</g>
			</g>
		</g>
		<g>
			<g>
				<rect x="876.94" y="407.28" class="st2" width="9.15" height="494.92"/>
			</g>
		</g>
		<g>
			<g>
				<g>
					<g>
						<g>
							<path class="st0" d="M893.83,555.49l0.29-0.59c-3.81-1.68-5.44-7.13-5.46-7.19l-0.67,0.18
								C888.07,548.12,889.74,553.68,893.83,555.49z"/>
						</g>
					</g>
				</g>
			</g>
		</g>
		<g>
			<g>
				<g>
					<g>
						<g>
							<g>
								<g>
									<path class="st0" d="M867.01,542.72c0,0,13.55-2.52,14.46-0.38c0.91,2.14-0.03,3.34-0.03,3.34l6.32,1.5
										c0,0,3.85,3.26-0.5,6.07c0,0,3.88,2.71-0.7,4.9c0,0,1.86,2.83-0.04,4.23c-1.9,1.4-10.72,2.66-10.72,2.66
										s-2.07-0.57-2.32-4.08c0,0-3.17-1.5-3.03-4.8c0,0-2.38-1.57-2.2-5.13c0,0-5.08-3.88-2.61-7.98
										C865.64,543.07,866.44,542.82,867.01,542.72z"/>
								</g>
							</g>
						</g>
					</g>
				</g>
			</g>
		</g>
		<g>
			<g>
				<g>
					<g>
						<g>
							<path class="st0" d="M877.99,549.21l-0.18-0.63c-4.2,1.07-8.17,1.29-8.21,1.29l0.04,0.66
								C869.68,550.52,873.72,550.29,877.99,549.21z"/>
						</g>
					</g>
				</g>
			</g>
		</g>
		<g>
			<g>
				<g>
					<g>
						<g>
							<path class="st0" d="M885.58,553.91l-0.21-0.63c-4.92,1.46-13.18,2.14-13.26,2.15l0.06,0.65
								C872.25,556.08,880.58,555.39,885.58,553.91z"/>
						</g>
					</g>
				</g>
			</g>
		</g>
		<g>
			<g>
				<g>
					<g>
						<g>
							<path class="st0" d="M884.63,559.35c0.02-0.01,0.04-0.02,0.06-0.02l-0.28-0.6c-3.07,1.28-9.56,1.65-9.62,1.66l0.04,0.65
								C875.1,561.03,881.42,560.66,884.63,559.35z"/>
						</g>
					</g>
				</g>
			</g>
		</g>
		<g>
			<g>
				<g>
					<g>
						<g>
							<path class="st0" d="M885.01,563.43c1.33-0.54,2.18-1.27,2.53-2.18c0.48-1.24-0.12-2.43-0.48-2.98
								c1.16-0.62,1.8-1.39,1.91-2.27c0.15-1.18-0.7-2.22-1.18-2.71c1.63-1.18,1.89-2.55,1.81-3.52c-0.11-1.36-0.97-2.56-1.7-2.89
								c-0.96-0.43-4.67-1.18-5.96-1.44c0.47-1,0.53-1.87,0.18-2.61c-0.55-1.18-1.94-1.52-2-1.54c-0.19-0.03-4.15-0.66-9.63,0.97
								l0.21,0.63c5.31-1.58,9.23-0.96,9.28-0.95l0,0c0,0,1.1,0.29,1.51,1.17c0.3,0.64,0.17,1.45-0.36,2.42l-0.22,0.39l0.45,0.09
								c1.79,0.35,5.39,1.1,6.24,1.48c0.47,0.21,1.21,1.17,1.31,2.34c0.07,0.86-0.19,2.11-1.85,3.16l-0.38,0.24l0.35,0.28
								c0.01,0.01,1.42,1.17,1.26,2.42c-0.1,0.74-0.73,1.39-1.88,1.94l-0.38,0.18l0.26,0.32c0.01,0.01,1.11,1.36,0.6,2.67
								c-0.45,1.15-1.96,1.97-4.51,2.45l0.14,0.64C883.48,563.95,884.31,563.72,885.01,563.43z"/>
						</g>
					</g>
				</g>
			</g>
		</g>
		<g>
			<g>
				<g>
					<g>
						<g>
							<g>
								<g>
									<path class="st0" d="M888.81,536.27c0,0-7.04,5.79-9.28,10.76c-0.51,1.12-0.78,2.32,0.15,3.32
										c0.93,0.99,3.44,1.08,6.64-1.26c3.19-2.34,8.57-3.82,8.57-3.82S897.35,541.83,888.81,536.27z"/>
								</g>
							</g>
						</g>
					</g>
				</g>
			</g>
		</g>
		<g>
			<g>
				<g>
					<g>
						<g>
							<path class="st0" d="M884.13,550.76c0.71-0.29,1.37-0.66,1.92-1.08c2.53-1.94,8.88-4.08,8.95-4.1l-0.23-0.62
								c-0.27,0.09-6.53,2.2-9.15,4.21c-1.73,1.32-4.21,1.9-5.42,1.25c-0.64-0.34-0.9-1-0.76-1.97c0.49-3.45,8.45-10.93,8.53-11
								l-0.49-0.47c-0.34,0.31-8.21,7.72-8.73,11.38c-0.22,1.57,0.48,2.3,1.11,2.63C880.97,551.58,882.64,551.37,884.13,550.76z"/>
						</g>
					</g>
				</g>
			</g>
		</g>
		<g>
			<rect x="826.38" y="342" class="st3" width="106.71" height="31.85"/>
		</g>
		<g>
			<polygon class="st3" points="1080.43,531.47 1078.53,571.34 1018.82,571.34 1015.68,531.47 1033.48,508.74 1060.65,508.74 			"/>
		</g>
		<g>
			<path class="st2" d="M1154.12,688.6c-26.45,0-47.97-20.39-47.97-45.45c0-25.06,21.52-45.45,47.97-45.45
				c26.45,0,47.97,20.39,47.97,45.45C1202.09,668.21,1180.57,688.6,1154.12,688.6z M1154.12,601.16
				c-24.43,0-44.31,18.83-44.31,41.98c0,23.15,19.88,41.98,44.31,41.98c24.43,0,44.31-18.83,44.31-41.98
				C1198.43,620,1178.55,601.16,1154.12,601.16z"/>
		</g>
		<g>
			<g>
				<g>
					<g>
						<g>
							<g>
								<g>
									<path class="st0" d="M1164.78,613.69c1.87-3.39,1.18-3.58,1.23-7.63c0.01-0.53,0.03-0.99,0.08-1.29c0.19-1.24,1-3.9,0.57-7
										c-0.42-3.09-4.19-13.83-4.19-13.83l-9.01,0.47l-6.88-1.05c0,0-9.89,16.47-9.84,19.39c0.01,0.29,0.02,0.57,0.06,0.83
										c0.29,2.48,1.6,4.2,1.91,5.48c0.12,0.47,1.6,5.07,3.01,5.62c1.94,0.77,3.62,0.55,4.82-0.21c0,0,3.88,1.35,6.5,0.48
										c0,0,3.53,1.35,6.48-0.61C1159.51,614.34,1163.26,615.33,1164.78,613.69z"/>
								</g>
							</g>
						</g>
					</g>
				</g>
			</g>
		</g>
		<g>
			<polygon class="st0" points="1154.12,648.74 1106.2,648.74 1121.35,736.46 1154.12,736.46 1186.89,736.46 1202.04,648.74 			"/>
		</g>
		<g>
			<rect x="1101.25" y="643.15" class="st0" width="105.74" height="11.19"/>
		</g>
	</g>
	<g>
		<g>
			<g>
				<g>
					<g>
						<path class="st0" d="M238.36,309.53c0,0,4.02-8.04,8.94-8.14c4.18-0.08,7.98-2.95,9.63-3.87c2.2-1.24,10.44-2.61,8.84-5.3
							c-1.59-2.68-13.69,1.64-16.41,2.06c-2.72,0.42,3.58-9.77,3.2-12.5c-0.37-2.73-18.53-11.81-22.01-4.34
							c-3.49,7.48-3.06,16.23-3.95,17.43c-0.88,1.2-2.77,6.17-2.77,6.17L238.36,309.53z"/>
					</g>
				</g>
			</g>
			<g>
				<g>
					<g>
						<path class="st0" d="M252.18,283.71c0,0,9.09-23.56,8.32-25.62c-0.76-2.06-2.12-2.45-3.07-0.28
							c-0.94,2.17-9.46,22.52-9.46,22.52s5.88-29.63,5.63-31.44c-0.14-1.06-2.72-1.98-3.34-0.87c-0.62,1.12-8.19,30.16-8.19,30.16
							s5.43-27.67,4.76-29.13c-0.59-1.28-3.18-1.55-3.73,0.47c-0.55,2.03-7.1,27.43-7.1,27.43s2.64-20.38,1.31-21.29
							c-0.81-0.56-3-1.45-3.51,3.83c-0.51,5.28-3.25,17.96-3.25,17.96L252.18,283.71z"/>
					</g>
				</g>
			</g>
		</g>
		<g>
			<polygon class="st12" points="454.15,852.92 463.35,851.13 363.59,376.91 354.4,378.7 			"/>
		</g>
		<g>
			<polygon class="st0" points="454.15,852.92 463.35,851.13 446.85,772.72 437.66,774.51 			"/>
		</g>
		<g>
			<path class="st0" d="M484.29,796.08l13.57,64.31c-7.8,22.95-31,29.61-31,29.61s-24.07,2.55-40.56-15.67l-13.57-64.31
				L484.29,796.08z"/>
		</g>
		<g>
			<path class="st2" d="M245.69,869.56c0,0-3.33,7.71-6.13,10.76c-2.8,3.05-13.54,8.51-13.6,17.58c-0.06,9.83,18.1,7.11,25.21,6.75
				c7.11-0.36,7.64-5.61,10.63-11.18c2.99-5.57,6.01-4.63,6.57-9.12c0.56-4.49-2.29-14.54-2.29-14.54L245.69,869.56z"/>
		</g>
		<g>
			<path class="st2" d="M375.45,869.56c0,0,3.33,7.71,6.13,10.76c2.8,3.05,13.54,8.51,13.6,17.58c0.06,9.83-18.1,7.11-25.21,6.75
				c-7.11-0.36-7.64-5.61-10.63-11.18c-2.99-5.57-6.01-4.63-6.57-9.12c-0.56-4.49,2.29-14.54,2.29-14.54L375.45,869.56z"/>
		</g>
		<g>
			<path class="st4" d="M371.11,742.59c0,12.13,10.99,122.83,10.99,122.83c-1.26,4.04-28.23,3.55-32.44,1.53
				c-4.21-2.02-16.43-111.72-17.21-123.95c-0.78-12.23-21.99-112.8-25.67-112.4c-3.69,0.4-17.52,108.59-20.46,117.89
				c-2.94,9.3-16.3,119.51-16.3,119.51c-9.25,5.25-31.26-1.32-31.26-1.32s4.61-113.16,5.14-116.57c0.78-5.06-0.03-18.69,2.11-48.93
				c1.92-27.05,8.83-85.96,13.22-117.85c0.02-0.17,1.64-11.91,2.47-17.68c23.06-10.19,70.38-5.29,93.94-0.83c0,0,0.03,0.28,0.1,0.81
				c0.08,0.64,0.2,1.65,0.36,2.95c0.2,1.68,1.29,10.63,1.5,12.41c2.07,17.3,5,42.63,4.73,45.26
				C361.91,630.29,371.11,730.46,371.11,742.59z"/>
		</g>
		<path class="st13" d="M345.36,855.23l1.72,15.66c0,0,1.49,2.2,17.33,2.65c15.83,0.44,18.36-4.96,18.36-4.96l0.69-14.11
			C383.45,854.46,369.57,860.85,345.36,855.23z"/>
		<path class="st13" d="M272.77,855.79l-1.61,14.65c0,0-1.4,2.06-16.22,2.48c-14.82,0.41-17.18-4.64-17.18-4.64l-0.65-13.21
			C237.11,855.07,250.1,861.05,272.77,855.79z"/>
		<g>
			<path class="st2" d="M226.11,294.41c0,0-40.64,58.16-39.73,70.12c0.42,5.53,10.15,23.3,17.94,31.41
				c2.56,2.67,5.28,5.32,7.99,7.87c0.01,0.01,0.01,0.01,0.01,0.01c10.8,10.15,21.41,18.45,21.41,18.45s27.82,26.99,44.33,9.8
				c0,0-1.42-10.57-7.47-18.19c-6.05-7.62-13.37-13.19-16.91-15.51c-3.53-2.31-35.78-29.97-36.36-31.32
				c-0.58-1.36,4.89-18.72,8.65-26.34c5.37-10.87,17.31-34.99,17.31-34.99L226.11,294.41z"/>
		</g>
		<g>
			<path class="st0" d="M335.08,391.66c0,0,5.33,1.15-17.27,21.52c0,0-15.58-16.58-15.03-19.4
				C303.32,390.96,335.08,391.66,335.08,391.66z"/>
		</g>
		<g>
			<path class="st2" d="M382.64,410.54l-17.59,58.04c-5.11,16.63-8.02,33.4-8.89,48.12c-0.67,11.34-0.06,47.4-0.06,47.4
				s-22.17,7.82-58.35,5.62c0,0-38.19,9.66-35.01-13.26c8.4-60.69,2.23-68.48,1.13-74.57c0,0-0.69-40.31-11.61-79.53
				c10.3,5.68,57.07-11.08,57.07-11.08l25.38,0.27C334.71,391.55,368.12,400.03,382.64,410.54z"/>
		</g>
		<path class="st4" d="M361.88,480.05c0,0-15.06-6.76-20.28-29.64l-53.22-0.56c0,0-15.92,30.41-24.52,32.03
			c0,0,1.68,33.39,0.6,46.29c-1.07,12.9-3.39,41.74-3.39,41.74s1.81,18.93,95.63,3.78c0,0,0.06-53,0.21-55.29
			C357.08,516.11,361.49,481.39,361.88,480.05z"/>
		<path class="st4" d="M288.92,449.86c0,0-4.64-29.36-17.91-47.73c0,0,2.5-0.79,6.06-1.28c0,0,12.32,18.15,17.55,49.07
			C299.84,480.84,288.92,449.86,288.92,449.86z"/>
		<g>
			<path class="st0" d="M324.09,312.33c0,0,23.65,3.83,19.64,39.42c-4.01,35.58-24.89,32.44-26.29,32.39
				c-1.4-0.05-21,0.43-22.04-43.08C295.41,341.07,295.11,308.9,324.09,312.33z"/>
		</g>
		<g>
			<path class="st0" d="M334.46,373.83c0,0-0.82,14.64,0.62,17.83c1.44,3.19-19,13.27-31.69,1.78c0,0,2.57-16.01,1.77-21.66
				C304.36,366.13,334.46,373.83,334.46,373.83z"/>
		</g>
		<g>
			<path class="st0" d="M344.22,341.69c0,0,2.62-2.64,3.55,0.07c0.92,2.71-4.19,14.7-3.87,15.24c0,0-0.49,1.04-1.1,0.46
				C342.17,356.88,344.22,341.69,344.22,341.69z"/>
		</g>
		<g>
			<path class="st0" d="M295.68,340.73c0,0-2.51-2.74-3.55-0.07c-1.04,2.67,2.75,14.64,3.22,15.38c0,0,0.81,1.23,1.46,0.67
				C297.45,356.16,295.68,340.73,295.68,340.73z"/>
		</g>
		<g>
			<path class="st2" d="M345.73,338.67c-0.82,4.87-1.59,8.49-1.59,8.49l-3.44,4.32c0,0,0.2-9.55-0.32-11.05
				c-0.2-0.57-0.43-1.57-0.67-2.67c-0.4-1.8-0.8-3.83-1.08-4.51c-0.44-1.08-20.27-6.65-37.94,1.17c0,0,0.15,1.47,0.14,3.11
				c-0.01,1.91-0.22,4.04-1.13,4.36c-1.69,0.59-0.98,11.18-0.98,11.18l-2.75-3.05c0,0-0.8-5.53-1.58-11.88c0,0,0-0.02-0.01-0.05
				c-0.18-1.48-0.36-3-0.53-4.52c-0.39-6.39,0.26-18,8.93-24.82c5.85-2.4,15.33-3.02,30.89,1.56c0,0,1.96-0.38,4.41-0.27
				C347.75,320.28,345.73,338.67,345.73,338.67z"/>
		</g>
		<path class="st0" d="M306.78,379.39c0,0,3.78,5.04,12.55,4.85c8.77-0.19,12.58-4.58,12.58-4.58s-4.15,8.35-12.62,8.26
			C310.82,387.82,306.78,379.39,306.78,379.39z"/>
		<path class="st2" d="M345.73,338.67c0,0-2.06-0.45-6.02-0.91c-7.13-0.84-20.41-1.74-38.88-0.23c-2.08,0.17-4.24,0.37-6.45,0.61
			c0,0,0-0.02-0.01-0.05c-0.06-0.3-0.38-2-0.53-4.52c-0.39-6.39-1.08-18.11,7.58-24.93c3.68-2.91,10.15-5.27,17.28-5.24
			c12.08,0.04,17.05,2.96,21.1,7.26C349.49,320.9,345.73,338.67,345.73,338.67z"/>
		<path class="st2" d="M345.73,338.67c0,0-9.35,3.72-25.83,3.45c-16.48-0.27-25.53-3.99-25.53-3.99s9.52-3.02,26.15-2.85
			C337.15,335.45,345.73,338.67,345.73,338.67z"/>
		<path class="st0" d="M301.47,393.94c0,0,5.83,10.6,17.88,11.41c12.04,0.81,16.41-7.92,17.36-13.28
			C336.7,392.08,320.08,385.3,301.47,393.94z"/>
		<polygon class="st13" points="326.4,495.79 310.35,495.79 294.3,495.79 279.34,510.17 279.34,553.94 310.35,553.94 341.36,553.94 
			341.36,510.17 		"/>
		<path class="st2" d="M239.31,426.97c0,0,21.62,26.17,23.31,34.65c1.7,8.49,7.26-22.98,7.26-22.98L239.31,426.97z"/>
		<g>
			<g>
				<g>
					<g>
						<g>
							<path class="st0" d="M402.64,577.36c0,0,2.69-1.13,3.56-2.11c0,0,1.41-1.9,2.51-3.2c0.35-0.41,0.67-0.76,0.9-0.97
								c0.98-0.87,3.44-2.52,5.06-5.18c1.62-2.66,5.3-19.7,5.3-19.7l-8.32,0.1l-9.85-6.35c0,0-8.49,7.32-17.68,13.51
								c-0.24,0.16-0.35,0.46-0.48,0.68c-1.34,2.1-1.26,4.17-1.81,5.35c-0.2,0.43-1.82,4.85-0.9,6.05c1.28,1.66,2.95,2.41,4.54,2.46
								c0,0,2.67,3.17,5.63,3.93c0,0,2.35,2.99,6.31,3.06C397.4,575,400.19,577.82,402.64,577.36z"/>
						</g>
					</g>
				</g>
			</g>
		</g>
		<g>
			<path class="st2" d="M423.22,476.9c1.13,10.08-3.25,73.33-3.25,73.33l-22.93-7.4c0,0,1.81-28.39,1.27-39.16
				c-0.42-8.25-0.17-22.1-0.59-23.48c-0.43-1.38-23.78-36.62-26.98-39.21c-3.2-2.6-14.89-11.8-19.98-19.8
				c-5.09-8-1.13-15.9-1.13-15.9c17.89-15.14,42.31,14.96,42.31,14.96s7.25,7.61,15.94,20.5
				C407.87,440.75,422.01,466.17,423.22,476.9z"/>
		</g>
		<path class="st4" d="M341.5,450.41c0,0,6.99-31.99,20.68-50.08c0,0-1.56-1.32-5.09-1.89c0,0-15.35,21.1-21.28,51.91
			C329.88,481.15,341.5,450.41,341.5,450.41z"/>
	</g>
	<g>
		<g>
			<g>
				<g>
					<g>
						<path class="st0" d="M1689.84,442.09c0,0-9.24,62.3-9.88,67.91c-1.35,11.73,13.22,103.21,13.22,103.21l14.06-15.88
							c0,0-7.44-81.85-6.66-87.33c1.84-12.97,14.19-55.78,14.19-55.78S1699.32,436.75,1689.84,442.09z"/>
					</g>
				</g>
			</g>
		</g>
		<g>
			<g>
				<g>
					<g>
						<g>
							<path class="st0" d="M1793.76,446.39c0,0,33.58,44.08,31.98,50.37c-3.37,13.28-17.42,39.4-21.18,48.22
								c-0.81,1.91,8.69,13.9,8.69,13.9s39.67-53.17,39.99-60.9c0.34-8.21-30.13-76.46-36.2-83.81
								C1811.17,407.05,1793.76,446.39,1793.76,446.39z"/>
						</g>
					</g>
				</g>
			</g>
		</g>
		<g>
			<g>
				<g>
					<g>
						<g>
							<path class="st2" d="M1778.37,871.5c0,0-11.66,4.69-17.27,7.62c-5.61,2.93-27.96,5.53-30.09,7.69
								c-2.13,2.16-1.61,13.33,2.06,13.94c3.67,0.61,30.5,2.52,39.39,0.19c8.89-2.32,25.68,0.91,29.36-0.45
								c3.68-1.36,0.87-21.68-0.65-26.22C1799.65,869.73,1778.37,871.5,1778.37,871.5z"/>
						</g>
					</g>
				</g>
			</g>
		</g>
		<g>
			<g>
				<g>
					<g>
						<g>
							<path class="st2" d="M1778.4,865.54l-0.04,8.62c0,0,16.81,2.84,22.81,0.11l-0.59-9.45L1778.4,865.54z"/>
						</g>
					</g>
				</g>
			</g>
		</g>
		<g>
			<g>
				<g>
					<g>
						<g>
							<path class="st2" d="M1695.93,874.23c0,0-12.86,5.96-18.38,9.06c-5.53,3.1-26.16,4.98-28.23,7.2
								c-2.07,2.22-1.51,13.62,2.17,14.12c3.68,0.5,30.56,1.59,39.38-1c8.82-2.59,25.7,0.14,29.33-1.33
								c3.63-1.47,0.24-21.7-1.41-26.19C1717.14,871.59,1695.93,874.23,1695.93,874.23z"/>
						</g>
					</g>
				</g>
			</g>
		</g>
		<g>
			<g>
				<g>
					<g>
						<g>
							<path class="st2" d="M1695.78,868.05l0.21,8.62c0,0,16.89,2.33,22.8-0.58l-0.86-9.43L1695.78,868.05z"/>
						</g>
					</g>
				</g>
			</g>
		</g>
		<g>
			<g>
				<g>
					<g>
						<g>
							<path class="st2" d="M1803.6,718.48c0.29,6.02,0.5,146.83,0.5,146.83c-0.29,2.37-32.86,1.35-32.86,1.35
								s-8.72-131.74-9.59-137.06c-0.87-5.32-12.32-87.66-12.61-92.69c-0.28-5.03-1.45-7.1-6.95-5.61
								c-5.51,1.48-18.4,85.1-19.85,100.48c-1.45,15.38,1.88,136.89-0.43,138.37c-2.32,1.48-29.69,1.62-30.85,1.03
								c-1.16-0.59-6.67-106.89-6.67-116.95c0-5.53-1.86-34.21,0.88-49.51c1.75-9.82,2.76-89.92,12.01-115.98
								c1.66-4.68,2.63-7.41,2.63-7.41s101.03-34.06,103.11-8.08c0.2,2.49,2.09,9.65,2.2,12.37
								C1806.87,634.49,1803.33,712.77,1803.6,718.48z"/>
						</g>
					</g>
				</g>
			</g>
		</g>
		<g>
			<g>
				<g>
					<g>
						<g>
							<path class="st2" d="M1738.47,627.81c-8.93-11.46-17.95-32.88-18.04-33.09l1.07-0.47c0.09,0.21,9.05,21.49,17.88,32.82
								L1738.47,627.81z"/>
						</g>
					</g>
				</g>
			</g>
		</g>
		<g>
			<g>
				<g>
					<g>
						<g>
							<path class="st2" d="M1736.61,625.19c-0.1-0.1-10.51-9.88-16.13-18.56l0.97-0.65c5.54,8.56,15.85,18.25,15.95,18.34
								L1736.61,625.19z"/>
						</g>
					</g>
				</g>
			</g>
		</g>
		<g>
			<g>
				<g>
					<g>
						<g>
							<path class="st0" d="M1803.93,573.29c0.73,7.77,1.45,13.63,1.45,13.63c-84.23,9.65-105.57-5.61-105.57-5.61
								c0.24-0.59,0.86-3.91,1.65-8.96c0.01-0.05,0.02-0.1,0.02-0.15c0.17-1.08,0.35-2.23,0.53-3.46l0.01-0.03v-0.02
								c0.16-1.07,0.32-2.19,0.49-3.35c0.38-2.67,0.78-5.58,1.19-8.66c0.29-2.24,0.59-4.56,0.88-6.95
								c2.42-19.84,4.53-43.55,2.99-53.97c-2.82-19.08-1.22-35.3-3.71-36.03c-2.49-0.74-19.56-6.82-19.56-6.82
								s9.08-29.46,12.88-35.84c3.8-6.38,30.98-15.72,30.98-15.72s21.18-8.27,43.5-5.02c35.14,5.11,46,18.66,46,18.66l-12.79,53.81
								c0,0-2.24,63.77-2.49,76.02c-0.03,1.71-0.02,3.59,0.03,5.56c0.06,2.24,0.16,4.61,0.3,7.02c0.17,2.93,0.38,5.93,0.61,8.83
								c0.1,1.18,0.2,2.34,0.29,3.47c0.1,1.18,0.21,2.34,0.31,3.46v0C1803.93,573.21,1803.93,573.25,1803.93,573.29z"/>
						</g>
					</g>
				</g>
			</g>
		</g>
		<g>
			<g>
				<g>
					<g>
						<g>
							<path class="st0" d="M1770.22,363.79c-0.01,0.02-0.01,0.02-0.01,0.02c-2.81,5.67-6.19,11.04-9.86,15.58
								c-12.7,15.67-41.25,15.22-40.42-28.81c0.16-8.34,1.37-15.07,3.16-20.5c6.4-19.36,20.22-22.2,20.22-22.2
								c10.16-0.27,27.84,2.82,33.37,16.48C1780.61,334.06,1777.12,349.84,1770.22,363.79z"/>
						</g>
					</g>
				</g>
			</g>
		</g>
		<g>
			<g>
				<g>
					<g>
						<g>
							<path class="st2" d="M1770.22,363.79c-0.01,0.02-0.01,0.02-0.01,0.02s-1.48,0.36-6.43-10.67c-0.99-2.21-1.85-0.68-2.28-1.65
								l-8.3-3.59c0,0,8.71-13.93-2.05-18.19c-10.96-4.34-28.05,0.37-28.05,0.37c6.4-19.36,20.22-22.2,20.22-22.2
								c10.16-0.27,27.84,2.82,33.37,16.48C1780.61,334.06,1777.12,349.84,1770.22,363.79z"/>
						</g>
					</g>
				</g>
			</g>
		</g>
		<g>
			<g>
				<g>
					<g>
						<g>
							<path class="st0" d="M1759.97,344.85c0.71-2.92,6.47-5.29,8.71,1.11c2.24,6.39-6.05,12.86-8.14,11.41
								C1758.45,355.92,1758.8,349.69,1759.97,344.85z"/>
						</g>
					</g>
				</g>
			</g>
		</g>
		<g>
			<g>
				<g>
					<g>
						<g>
							<path class="st2" d="M1815.63,412.63c0,0,9.44,6.92,20.5,37.16l-36.3,19.97l-14.36-33.97L1815.63,412.63z"/>
						</g>
					</g>
				</g>
			</g>
		</g>
		<g>
			<g>
				<g>
					<g>
						<g>
							<path class="st2" d="M1800.25,462.69l0.78-0.63c-0.11-0.14-10.63-13.85-12.78-25.52l-0.98,0.19
								C1789.47,448.64,1800.14,462.55,1800.25,462.69z"/>
						</g>
					</g>
				</g>
			</g>
		</g>
		<g>
			<path class="st0" d="M1777.87,345.86c0,0-26.44-19.86-58.11-13.99c0,0,3.01-40.11,38.65-32.17
				C1791.9,307.16,1779.16,341.36,1777.87,345.86z"/>
		</g>
		<g>
			<path class="st0" d="M1760.78,336.7c0,0-26.95,4.11-43.99-0.05c-17.04-4.17,3.58-8.94,3.58-8.94S1734.79,323.55,1760.78,336.7z"
				/>
		</g>
		<g>
			<path class="st2" d="M1817.65,414.98c0,0-7.02-11.14-22.37-5.83c-14.84,5.13-12.21,26.79-12.21,26.79
				c7.03,47.9,21.66,36.51,21.66,36.51l1.24-11.27L1817.65,414.98z"/>
		</g>
		<g>
			<path class="st2" d="M1704.88,461.69c0,0-6.11-37.19,8.36-54.52c0,0-13.42,5.24-16.5,9.78c-3.08,4.54-12.44,35.95-12.44,35.95
				L1704.88,461.69z"/>
		</g>
		<g>
			<g>
				<g>
					<g>
						<g>
							<path class="st2" d="M1801.1,461.18l0.53-0.86c-0.1-0.06-10.06-6.54-12.48-13.93l-0.95,0.32
								C1790.74,454.45,1800.68,460.91,1801.1,461.18z"/>
						</g>
					</g>
				</g>
			</g>
		</g>
		<g>
			<path class="st2" d="M1800.42,460.67c-0.24-0.29-5.95-7.1-7.16-12.15l1-0.25c1.16,4.8,6.88,11.65,6.94,11.72L1800.42,460.67z"/>
		</g>
		<g>
			<path class="st2" d="M1775.03,396.78c0,0-31.16,49.21-32.53,52.83c-1.37,3.63-9.44-49.89-9.44-49.89L1775.03,396.78z"/>
		</g>
		<g>
			<g>
				<g>
					<path class="st0" d="M1736.07,379.97c0,0,0.57,16.82-0.79,19.17c0,0,4.13,15.42,9.91,14.42c6.08-1.05,23.66-10.58,27.72-16.68
						c0,0-7.12-7.32-4.31-29.96C1752.4,372.49,1736.07,379.97,1736.07,379.97z"/>
				</g>
			</g>
		</g>
		<g>
			<g>
				<path class="st2" d="M1769.72,390.43c0,0-14.56,10.02-24.04,13.06l4.41,13.79l24.94-20.49L1769.72,390.43z"/>
			</g>
		</g>
		<g>
			<g>
				<path class="st2" d="M1745.68,403.49c0,0-8.29-5.33-9.63-9.47l-3,5.7l7.09,15.6L1745.68,403.49z"/>
			</g>
		</g>
		<g>
			<path class="st2" d="M1745.68,403.49l3.23,10.11c0,0-6.03,2.59-7.96,0L1745.68,403.49z"/>
		</g>
		<g>
			<g>
				<path class="st14" d="M1803.28,565.72c-53.24,8.18-95.99,0.59-100.78-0.38c-0.17,1.17-0.33,2.29-0.49,3.35v0.02l-0.01,0.03
					c-0.18,1.22-0.36,2.38-0.53,3.46c-0.01,0.05-0.02,0.1-0.02,0.15c2.98,0.6,13.53,2.57,29.42,3.73
					c6.64,0.49,14.74,0.86,23.94,0.86c14.2,0,31.02-0.9,49.12-3.65L1803.28,565.72z"/>
			</g>
		</g>
		<g>
			<g>
				<path class="st14" d="M1802.7,557.4c-17.65,2.65-34.04,3.52-47.91,3.52c-9.08,0-17.07-0.37-23.63-0.85
					c-13.6-1-23.23-2.59-27.47-3.38c0.29-2.24,0.59-4.56,0.88-6.95c8.89,1.66,48.84,8.13,97.83,0.64
					C1802.46,552.61,1802.56,554.98,1802.7,557.4z"/>
			</g>
		</g>
		<g>
			<g>
				<path class="st0" d="M1804.57,544.98c0,0-1.44,1.55-3.27,1.5c-3.17-0.09-7.1-3.82-10.12-0.56c-3.03,3.26,5.18,17.54,7.83,19.25
					c2.66,1.71,8.82,1.44,14.26-6.28C1818.69,551.15,1804.57,544.98,1804.57,544.98z"/>
			</g>
			<g>
				<path class="st0" d="M1792.36,544.99c0,0-6.21,2.21-12.74,5.62c-5.73,2.99-12.3,7.9-11.49,9.23c1.57,2.58,6.25-2.02,12.16-4.55
					c5.44-2.33,4.84-0.85,4.84-0.85s0.15-0.44-5.18,3.4c-5.73,4.13-12.56,8.2-10.68,10.84c0.52,0.74,0.74,1.15,3.09,0.05
					c-1.19,0.96-1.05,1.46-0.68,2.1c2.35,4.07,11.49-1.35,15.25-3.16c-2.88,1.41-4.81,2.79-2.46,4.03
					c2.69,1.42,14.79-5.15,20.13-6.01C1809.95,564.83,1792.36,544.99,1792.36,544.99z"/>
			</g>
			<g>
				<path class="st0" d="M1806.55,561.11c-3.93-7.42-11.62-13.99-11.69-14.06l0.34-0.55c0.08,0.07,7.89,6.74,11.89,14.31
					L1806.55,561.11z"/>
			</g>
			<g>
				<path class="st0" d="M1773.99,568.39l-0.39-0.63c0.07-0.05,6.91-4.77,14.15-8.55l0.33,0.66
					C1780.87,563.64,1774.06,568.35,1773.99,568.39z"/>
			</g>
			<g>
				<path class="st0" d="M1787.77,567.39l-0.32-0.67c3.7-1.76,3.81-1.78,3.85-1.79l0.18,0.71
					C1791.34,565.7,1789.13,566.75,1787.77,567.39z"/>
			</g>
		</g>
		<g>
			<polygon class="st2" points="1700.09,583.95 1687.2,603 1693.65,616.34 			"/>
		</g>
		<g>
			<g>
				<g>
					<g>
						<g>
							<path class="st0" d="M1752.05,385.89c7.53-3.71,11.11-11.57,11.15-11.68l-0.81-0.38c-0.06,0.14-6.38,13.99-19.88,12.99
								l-0.06,0.91C1746.17,388.01,1749.36,387.22,1752.05,385.89z"/>
						</g>
					</g>
				</g>
			</g>
		</g>
	</g>
</g>
</svg>
