<?xml version="1.0" encoding="utf-8"?>
<!-- Generator: Adobe Illustrator 25.2.1, SVG Export Plug-In . SVG Version: 6.00 Build 0)  -->
<svg version="1.1" id="Layer_1" xmlns="http://www.w3.org/2000/svg" xmlns:xlink="http://www.w3.org/1999/xlink" x="0px" y="0px"
	 viewBox="0 0 1920 1080" style="enable-background:new 0 0 1920 1080;" xml:space="preserve">
<style type="text/css">
	.st0{fill:#0096C9;}
	.st1{fill:#BAD6FD;}
	.st2{fill:#FAFFFF;}
	.st3{fill:#AFD1F5;}
	.st4{fill:#72B371;}
	.st5{fill:#9AD297;}
	.st6{fill:#81B2F8;}
	.st7{fill:#8DC1FF;}
	.st8{fill:#204D9A;}
	.st9{fill:#BCD8FD;}
	.st10{fill:#CEE2F8;}
	.st11{fill:#92C1F5;}
	.st12{fill:#DEEEFF;}
	.st13{fill:#FFFFFF;}
	.st14{fill:#D1E8FD;}
	.st15{fill:#C9DEF9;}
	.st16{fill:#BDD6F6;}
	.st17{fill:#6CA2E9;}
	.st18{fill:#FC0000;}
	.st19{fill:#293968;}
	.st20{fill:#E4D200;}
	.st21{fill:#90BDE3;}
	.st22{fill:#B3D2F6;}
	.st23{fill:#C3D9F4;}
	.st24{fill:#568BC3;}
	.st25{fill:#95BFF7;}
	.st26{fill:#2D3554;}
</style>
<g>
	<g>
		<path class="st0" d="M1747.88,931.6l-1557.47-2.58c0-14.59-168.69-509.9,82.58-668.15C391.09,186.5,497.06,158,590.66,155.92
			c1.14-0.03,2.28-0.05,3.41-0.07c230.86-3.59,385.95,153.04,461.64,174.74c268.26,76.92,370.97-101.04,580.44-42.22
			C1872.68,354.8,1856.54,765.19,1747.88,931.6z"/>
		<g>
			<circle class="st1" cx="1379.97" cy="445.06" r="51.73"/>
			<circle class="st2" cx="1380.46" cy="445.03" r="48.39"/>
			<g>
				<g>
					<path class="st3" d="M1377.04,414.21c0-1.01,0.82-1.83,1.83-1.83c1.01,0,1.83,0.82,1.83,1.83c0,1.01-0.82,1.83-1.83,1.83
						C1377.86,416.04,1377.04,415.22,1377.04,414.21z"/>
					<path class="st3" d="M1391.83,416.8c0.49-0.88,1.61-1.2,2.49-0.71c0.88,0.49,1.2,1.61,0.71,2.49c-0.49,0.88-1.61,1.2-2.49,0.71
						C1391.66,418.8,1391.34,417.69,1391.83,416.8z"/>
					<path class="st3" d="M1404.5,426.87c0.85-0.55,1.99-0.3,2.53,0.55c0.55,0.85,0.3,1.99-0.55,2.53c-0.85,0.55-1.99,0.3-2.53-0.55
						C1403.41,428.55,1403.65,427.42,1404.5,426.87z"/>
					<path class="st3" d="M1410.78,442.45c1.01,0,1.83,0.82,1.83,1.83s-0.82,1.83-1.83,1.83c-1.01,0-1.83-0.82-1.83-1.83
						S1409.77,442.45,1410.78,442.45z"/>
					<path class="st3" d="M1407.58,460.54c0.72,0.72,0.72,1.88,0,2.59c-0.72,0.72-1.88,0.72-2.59,0c-0.72-0.72-0.72-1.88,0-2.59
						C1405.7,459.82,1406.86,459.82,1407.58,460.54z"/>
					<path class="st3" d="M1396.07,472.08c0.72,0.72,0.72,1.88,0,2.59c-0.72,0.72-1.88,0.72-2.59,0c-0.72-0.72-0.72-1.88,0-2.59
						C1394.19,471.36,1395.35,471.36,1396.07,472.08z"/>
					<path class="st3" d="M1377.04,478.03c0-1.01,0.82-1.83,1.83-1.83c1.01,0,1.83,0.82,1.83,1.83s-0.82,1.83-1.83,1.83
						C1377.86,479.86,1377.04,479.04,1377.04,478.03z"/>
				</g>
				<g>
					<path class="st3" d="M1365.86,416.8c-0.49-0.88-1.61-1.2-2.49-0.71c-0.88,0.49-1.2,1.61-0.71,2.49
						c0.49,0.88,1.61,1.2,2.49,0.71C1366.03,418.8,1366.35,417.69,1365.86,416.8z"/>
					<path class="st3" d="M1353.18,426.87c-0.85-0.55-1.98-0.3-2.53,0.55c-0.55,0.85-0.3,1.99,0.55,2.53
						c0.85,0.55,1.99,0.3,2.53-0.55C1354.28,428.55,1354.03,427.42,1353.18,426.87z"/>
					<path class="st3" d="M1346.91,442.45c-1.01,0-1.83,0.82-1.83,1.83s0.82,1.83,1.83,1.83c1.01,0,1.83-0.82,1.83-1.83
						S1347.92,442.45,1346.91,442.45z"/>
					<path class="st3" d="M1350.11,460.54c-0.72,0.72-0.72,1.88,0,2.59c0.72,0.72,1.88,0.72,2.59,0c0.72-0.72,0.72-1.88,0-2.59
						C1351.99,459.82,1350.83,459.82,1350.11,460.54z"/>
					<path class="st3" d="M1361.62,472.08c-0.72,0.72-0.72,1.88,0,2.59c0.72,0.72,1.88,0.72,2.59,0c0.72-0.72,0.72-1.88,0-2.59
						C1363.5,471.36,1362.34,471.36,1361.62,472.08z"/>
				</g>
			</g>
			<g>
				<path class="st3" d="M1378.38,444.29c0-1.01,0.82-1.83,1.83-1.83c1.01,0,1.83,0.82,1.83,1.83s-0.82,1.83-1.83,1.83
					C1379.2,446.12,1378.38,445.3,1378.38,444.29z"/>
				<g>
					<rect x="1379.96" y="421.39" class="st3" width="0.5" height="22.9"/>
				</g>
				<g>
					
						<rect x="1378.33" y="438.74" transform="matrix(0.7864 -0.6177 0.6177 0.7864 24.5458 949.97)" class="st3" width="15.43" height="1.5"/>
				</g>
			</g>
		</g>
		<g>
			<g>
				<path class="st4" d="M1245.53,642.63c0,0,9.75-11.37,0.6-18.59c0,0-6.68-4.04-12.13-3.72c0,0,7.72,12.94,5.22,14.23
					c-2.5,1.29-7.56-15.04-7.56-15.04s-15.2-1.47-20.09,0.88c0,0,12.99,10.63,10.26,11.27c-2.74,0.63-16.77-9.81-16.77-9.81
					s-14.15,2.41-13.39,11.04c0.75,8.63,5.63,11.3,7.77,11.07c2.14-0.23,14.68-5.01,14.95-3.26c0.27,1.76-7.27,7.49-12.56,7.76
					c0,0,9.97,11,16.6,7.83c6.63-3.17,7.2-8.21,11.33-10.09c4.13-1.89,7.66-1.88,5.95,0.04c-1.71,1.92-9.19,3.8-11.55,7.98
					c-2.36,4.18-4.48,7,2.38,5.97c6.86-1.03,18.01-6.05,18.5-11.8S1245.53,642.63,1245.53,642.63z"/>
				<g>
					<path class="st4" d="M1198.62,633.12c0,0,38.43-1.48,46.92,9.51c0,0,1.88,5.62,7.65,10.74l0.9,2.45c0,0-6.66-7.02-9.04-7.45
						C1245.04,648.38,1248.77,634.76,1198.62,633.12z"/>
					<path class="st4" d="M1253.18,653.37c0,0,8.25,6.1,8.82,17l-1.5,0.13c0,0-2.63-11.27-7.4-15.68
						C1248.35,650.42,1253.18,653.37,1253.18,653.37z"/>
				</g>
			</g>
			<g>
				<path class="st5" d="M1279.61,628.33c0,0-15.5-8.68-8.27-20.47c0,0,5.79-7.24,11.99-9.1c0,0-3.31,17.57,0,17.98
					c3.31,0.41,2.27-19.85,2.27-19.85s16.33-7.86,22.74-7.24c0,0-10.13,17.16-6.82,16.74c3.31-0.41,14.68-17.78,14.68-17.78
					s16.74-3.1,19.43,6.82c2.69,9.92-1.65,14.88-4.13,15.5c-2.48,0.62-18.4,0.41-17.98,2.48c0.41,2.07,11.16,5.38,17.16,3.51
					c0,0-6.61,16.33-15.3,15.5c-8.68-0.83-11.37-6.2-16.74-6.61c-5.37-0.41-9.3,1.03-6.61,2.48c2.69,1.45,11.78,0.47,16.12,4.16
					c4.34,3.69,7.86,5.96-0.21,7.62c-8.06,1.65-22.53,0.62-25.43-5.58C1279.61,628.33,1279.61,628.33,1279.61,628.33z"/>
				<g>
					<path class="st4" d="M1327.98,598.57c0,0-43.41,14.06-48.37,29.77c0,0,0.21,7.03-4.13,15.09v3.1c0,0,4.55-10.54,7.03-11.99
						C1282.5,634.54,1272.78,620.89,1327.98,598.57z"/>
					<path class="st4" d="M1275.47,643.42c0,0-6.69,10.17-2.88,22.54l1.72-0.46c0,0-1.67-13.63,1.83-20.49
						C1279.65,638.16,1275.47,643.42,1275.47,643.42z"/>
				</g>
			</g>
			<g>
				<path class="st5" d="M1254.94,616.36c0,0,20.44-11.44,10.9-26.98c0,0-7.63-9.54-15.8-11.99c0,0,4.36,23.16,0,23.71
					c-4.36,0.55-3-26.16-3-26.16s-21.53-10.35-29.97-9.54c0,0,13.35,22.62,8.99,22.07c-4.36-0.55-19.35-23.43-19.35-23.43
					s-22.07-4.09-25.61,8.99c-3.54,13.08,2.18,19.62,5.45,20.44c3.27,0.82,24.25,0.55,23.71,3.27c-0.55,2.73-14.71,7.09-22.62,4.63
					c0,0,8.72,21.53,20.16,20.44c11.44-1.09,14.99-8.17,22.07-8.72c7.08-0.54,12.26,1.36,8.72,3.27
					c-3.54,1.91-15.53,0.63-21.25,5.49c-5.72,4.86-10.35,7.86,0.27,10.04c10.63,2.18,29.7,0.82,33.52-7.36
					C1254.94,616.36,1254.94,616.36,1254.94,616.36z"/>
				<g>
					<path class="st4" d="M1191.18,577.12c0,0,57.22,18.53,63.76,39.24c0,0-0.27,9.27,5.45,19.89v4.09c0,0-5.99-13.9-9.26-15.8
						C1251.13,624.53,1263.93,606.55,1191.18,577.12z"/>
					<path class="st4" d="M1260.39,636.25c0,0,8.83,13.4,3.79,29.71l-2.27-0.61c0,0,2.2-17.97-2.41-27
						C1254.88,629.32,1260.39,636.25,1260.39,636.25z"/>
				</g>
			</g>
			<path class="st6" d="M1255.63,701.34c-22.11,0-40.03-17.92-40.03-40.03h80.07C1295.66,683.42,1277.74,701.34,1255.63,701.34z"/>
			<path class="st7" d="M1267.45,701.03c-1.63,0.2-3.29,0.31-4.97,0.31c-22.11,0-40.03-17.92-40.03-40.03h9.94
				C1232.39,681.73,1247.69,698.58,1267.45,701.03z"/>
			<path class="st6" d="M1215.04,703.38h81.17l0,0c0-2.73-2.21-4.94-4.94-4.94h-71.29C1217.26,698.44,1215.04,700.65,1215.04,703.38
				L1215.04,703.38z"/>
			
				<rect x="1214.69" y="661.31" transform="matrix(-1 -1.224647e-16 1.224647e-16 -1 2511.6655 1323.8419)" class="st7" width="82.29" height="1.23"/>
		</g>
		<polygon class="st8" points="435.85,688.76 441.81,719.23 428.95,720.31 414.44,690.65 		"/>
		<polygon class="st8" points="848.67,636.63 854.63,667.1 841.77,668.18 827.26,638.52 		"/>
		<g>
			
				<rect x="395.78" y="855.34" transform="matrix(-1 -1.224647e-16 1.224647e-16 -1 882.3361 1785.5239)" class="st9" width="90.78" height="74.85"/>
			
				<rect x="441.17" y="855.34" transform="matrix(-1 -1.224647e-16 1.224647e-16 -1 973.1116 1785.5239)" class="st10" width="90.78" height="74.85"/>
			<polygon class="st11" points="395.83,911.2 410.22,911.2 408.95,907.16 410.22,904.27 395.83,904.27 			"/>
			<polygon class="st12" points="441.17,878.5 455.55,878.5 454.29,874.45 455.55,871.56 441.17,871.56 			"/>
			<polygon class="st11" points="441.17,871.56 426.78,871.56 428.05,875.61 426.78,878.5 441.17,878.5 			"/>
			<polygon class="st12" points="531.95,912.01 517.56,912.01 518.83,916.06 517.56,918.95 531.95,918.95 			"/>
			<rect x="499.88" y="860.41" class="st13" width="26.12" height="10.16"/>
		</g>
		<g>
			
				<rect x="541.67" y="855.34" transform="matrix(-1 -1.224647e-16 1.224647e-16 -1 1174.1167 1785.5239)" class="st9" width="90.78" height="74.85"/>
			
				<rect x="587.06" y="855.34" transform="matrix(-1 -1.224647e-16 1.224647e-16 -1 1264.8923 1785.5239)" class="st10" width="90.78" height="74.85"/>
			<polygon class="st11" points="541.72,911.2 556.11,911.2 554.84,907.16 556.11,904.27 541.72,904.27 			"/>
			<polygon class="st12" points="587.06,878.5 601.44,878.5 600.18,874.45 601.44,871.56 587.06,871.56 			"/>
			<polygon class="st11" points="587.06,871.56 572.67,871.56 573.94,875.61 572.67,878.5 587.06,878.5 			"/>
			<polygon class="st12" points="677.84,912.01 663.45,912.01 664.72,916.06 663.45,918.95 677.84,918.95 			"/>
			<rect x="645.77" y="860.41" class="st13" width="26.12" height="10.16"/>
		</g>
		<g>
			
				<rect x="473.64" y="781.36" transform="matrix(-1 -1.224647e-16 1.224647e-16 -1 1038.0573 1637.5621)" class="st9" width="90.78" height="74.85"/>
			
				<rect x="519.03" y="781.36" transform="matrix(-1 -1.224647e-16 1.224647e-16 -1 1128.8328 1637.5621)" class="st10" width="90.78" height="74.85"/>
			<polygon class="st11" points="473.69,837.22 488.08,837.22 486.81,833.18 488.08,830.28 473.69,830.28 			"/>
			<polygon class="st12" points="519.03,804.52 533.41,804.52 532.15,800.47 533.41,797.58 519.03,797.58 			"/>
			<polygon class="st11" points="519.03,797.58 504.64,797.58 505.91,801.63 504.64,804.52 519.03,804.52 			"/>
			<polygon class="st12" points="609.81,838.03 595.42,838.03 596.69,842.07 595.42,844.97 609.81,844.97 			"/>
			<rect x="577.74" y="786.43" class="st13" width="26.12" height="10.16"/>
		</g>
		<g>
			<g>
				<path class="st14" d="M814.11,517.61c-1.22,3.75-16.3,8.74-38.89,14.16c-3.98,0.96-8.19,1.92-12.61,2.9
					c-77.04,17.06-290.07,45.04-303.51,43.93c-18.57-1.53-73.36-168.93-73.36-168.93s106.38-13.3,190.93-23.32
					c28.92-3.43,129.56-15.07,148.23-17.1C753.84,366.11,816.08,511.54,814.11,517.61z"/>
				<path class="st13" d="M782.23,498.82c0,0-45.46-113.85-48.89-123.46c-1.53-4.28-4.94-5.52-8.26-5.57
					c5.69-1.14,9.87-1.64,9.87-1.64c11.32-1.23,22.16,4.82,26.94,15.03c10.43,22.27,31,65.01,50.5,106.85
					C811.64,490.1,782.23,498.82,782.23,498.82z"/>
				<path class="st13" d="M991.82,581.24c-2.02,30.01-34.11,52.47-69.11,56.27l-69.32,7.52l-13.09-170.72
					c0,0,63.99-27.39,82.53-11.4c16.24,14,62.4,71.39,68.44,107.67C991.89,574.23,992.06,577.79,991.82,581.24z"/>
				<path class="st13" d="M991.82,581.24c-2.02,30.01-34.11,52.47-69.11,56.27l-34,3.69C909.92,625.21,925.89,581.27,991.82,581.24z
					"/>
				<path class="st13" d="M796.39,495.95c0,0,88.95-52.18,109.64-26.65c10.99,13.56,43.18,68.92,49.05,105.21
					c5.71,35.27-26.65,62.38-62.55,66.27l-63.75,6.92L796.39,495.95z"/>
				<path class="st15" d="M933.14,607.38c-0.95,0.89-1.93,1.77-2.94,2.63c-12.49,10.79-29.31,20.12-48.96,26.91
					c-14.85,5.13-31.32,8.8-48.78,10.55l-30.31,3.3l-0.41,0.05l-143.48,15.61l-82.24,8.95l-1.22,0.13l-0.01-0.03l-4.37-13.67
					l-41.34-138.18c0,0,359.57-46.71,390.57-34.22c14.4,5.8,25.39,35.09,33.27,67.84C957.14,574.67,949.28,592.31,933.14,607.38z"/>
				<path class="st16" d="M933.14,607.38c-0.95,0.89-1.93,1.77-2.94,2.63c-12.49,10.79-29.31,20.12-48.96,26.91
					c-14.85,5.13-31.32,8.8-48.78,10.55l-30.31,3.3l-0.41,0.05l-143.48,15.61l-82.24,8.95l-1.23,0.1l-4.37-13.67
					c49.42-14.59,118.17-31.43,191.01-38.61C831.01,616.33,889.19,609.93,933.14,607.38z"/>
				<path class="st13" d="M640.86,620.89c-2.52,29.17-31.4,50.62-63.02,54.05l-63.75,6.92l-13.64-172.18c0,0,58.79-25.3,76-9.17
					c15.08,14.13,58.06,71.87,63.93,108.16C641.07,612.87,641.21,616.95,640.86,620.89z"/>
				<path class="st13" d="M640.86,620.89c-2.52,29.17-31.4,50.62-63.02,54.05l-51.01,5.54
					C549.16,663.63,577.04,620.76,640.86,620.89z"/>
				<path class="st17" d="M604.52,626.04c-1.31,11.55-6.75,21.85-14.81,30.24l0,0c-4.81,5.01-10.56,9.34-16.92,12.85
					c-7.82,4.32-16.58,7.41-25.69,9.01c-0.47,0.08-0.95,0.16-1.42,0.24c-0.38,0.06-0.76,0.11-1.13,0.17
					c-0.63,0.09-1.26,0.18-1.89,0.26c-0.33,0.04-0.67,0.08-1.01,0.12l-63.75,6.92l-0.01-0.03c-1.21,0.15-2.44,0.29-3.68,0.44
					c-6.55,0.78-13.4,1.59-19.76,2.33c-1.07,0.13-2.11,0.25-3.15,0.37c-0.39,0.05-0.77,0.09-1.15,0.13
					c-6.28,0.72-11.83,1.34-15.8,1.75c-5.58,0.57-10.87,0.8-15.88,0.64c-6.47-0.2-12.47-1.02-18.05-2.52
					c-1-0.27-1.98-0.56-2.94-0.87c-0.99-0.32-1.96-0.66-2.91-1.02c-2.55-0.97-5.01-2.1-7.36-3.4c-6.09-3.36-11.52-7.87-16.36-13.61
					c-3.36-4-6.44-8.6-9.23-13.84c-3.43-6.41-6.43-13.77-9.05-22.16c-0.07-0.21-0.14-0.43-0.2-0.64c-1.19-3.86-2.3-7.93-3.34-12.21
					c-0.47-1.95-0.93-3.95-1.36-6c-1.55-7.22-2.91-15.02-4.08-23.42c-0.1-0.73-0.2-1.47-0.3-2.21c-0.02-0.16-0.04-0.33-0.07-0.49
					c-0.88-6.68-1.66-13.72-2.32-21.16c-0.29-3.26-0.56-6.59-0.82-9.99c-0.12-1.55-0.22-3.11-0.33-4.69
					c-0.53-7.93-0.96-16.24-1.29-24.96c-0.15-3.92-0.28-7.91-0.39-11.99c-0.45-16.81-0.57-35.03-0.41-54.72
					c0.18-22.35,1.49-38.11,5.43-42.09c5.82-5.88,18.92-9.41,28.09-11.25l0.01,0c5.69-1.14,9.87-1.64,9.87-1.64
					c0.21-0.02,0.41-0.04,0.62-0.06c0.15-0.01,0.29-0.02,0.44-0.03c0.35-0.02,0.71-0.04,1.06-0.05c0.2-0.01,0.4-0.01,0.59-0.01
					c0.13,0,0.26,0,0.39,0c0.2,0,0.39,0,0.59,0.01c0.35,0.01,0.7,0.03,1.04,0.05c0.24,0.02,0.48,0.04,0.72,0.06
					c0.02,0,0.04,0,0.06,0c0.17,0.02,0.34,0.03,0.52,0.06c0.33,0.04,0.66,0.08,0.98,0.13c0.22,0.04,0.44,0.07,0.66,0.11
					c0.15,0.03,0.31,0.06,0.46,0.09c1.83,0.37,3.61,0.92,5.31,1.66c5.83,2.51,10.7,7.07,13.5,13.06
					c9.75,20.86,27.16,58.15,45.3,97.16c0.09,0.2,0.18,0.39,0.27,0.59c1.04,2.24,2.09,4.49,3.13,6.74c0.1,0.23,0.21,0.46,0.32,0.68
					c0.05,0.11,0.11,0.23,0.16,0.34c0.74-0.39,1.51-0.8,2.31-1.2c0.02-0.02,0.05-0.03,0.08-0.04c3.16-1.65,6.73-3.46,10.6-5.33l0,0
					c2-0.97,4.08-1.96,6.23-2.95c6.06-2.81,12.62-5.64,19.31-8.2c2.96-1.14,5.96-2.22,8.94-3.22c3.83-1.28,7.65-2.43,11.39-3.38
					c0.13-0.04,0.23-0.06,0.32-0.09c0.44-0.11,0.88-0.22,1.32-0.32c2.64-0.63,5.23-1.17,7.75-1.58l0,0
					c12.89-2.1,23.87-0.99,29.61,6.11c2.14,2.66,5.1,6.91,8.51,12.31c7.05,11.16,16.05,27.21,23.86,44.14
					c7.76,16.81,14.36,34.49,16.72,49.09C604.92,617.16,605.01,621.69,604.52,626.04z"/>
				<path class="st13" d="M428.34,537.23c0,0-45.46-113.85-48.89-123.45c-1.53-4.28-4.94-5.52-8.26-5.58
					c5.69-1.14,9.87-1.64,9.87-1.64c11.32-1.23,22.16,4.82,26.94,15.03c10.43,22.27,29.65,63.35,49.15,105.19
					C456.41,526.85,428.34,537.23,428.34,537.23z"/>
			</g>
			<path class="st18" d="M900.51,645.03c-0.35-0.21-11.31,2.6-14.37,2.67c-2.68,0.06-12.76-2.21-13.89-4.72
				c-0.16-0.36,11.65-1.08,13.52-2.25c0.93-0.58,4.85-3.1,8.15-2.86c3.3,0.24,5.07-0.02,5.07-0.02L900.51,645.03z"/>
			<g>
				<path class="st18" d="M329.31,518.08c0,0,10.59,17.27,28,13.36c0,0,4.83-8.02,5.84-14.32c0.12-0.78,0.25-1.53,0.37-2.24
					c1.16-7.09,2.01-11.04,2.01-11.04s0,0-0.02-0.01c-0.7-0.43-23.57-14.13-23.68-13.3C339.34,509.81,329.31,518.08,329.31,518.08z"
					/>
				<path class="st18" d="M343.59,495.49c1.69,4.72,8.47,14.47,19.93,19.39c1.16-7.09,2.01-11.04,2.01-11.04s0,0-0.02-0.01
					C364.86,503.56,343.08,494.1,343.59,495.49z"/>
				<path class="st18" d="M370.48,503.88c0,0-28.4,2.29-29.56-15.42c-1.16-17.71-5.6-29.34,12.49-31.55
					c18.09-2.21,22.05,4.32,23.88,10.13C379.11,472.86,377.84,502.83,370.48,503.88z"/>
				<path class="st8" d="M341.42,493.28c-0.41,0.18-6.59,1.1-14.39-22.86c-1.22-3.76-1.27-11.5,3.83-17.56
					c5.1-6.06,20.4-9.12,32.79-9.58c12.39-0.46,14.26,6.76,16.06,14c1.89,7.6,9.6,14.79,9.6,14.79
					c-11.27,4.23-22.52-5.97-27.07-5.26c-4.54,0.71-7.11,7.31-7.77,9.45c-0.66,2.14-1.43,3.88-6.59,1.1
					c-5.15-2.78-3.64,7.35-3.04,9.34C344.85,486.71,344.85,491.75,341.42,493.28z"/>
			</g>
			<g>
				<path class="st19" d="M357.29,931.81h-44.52c-0.43-0.08-0.75-0.18-0.95-0.27c-2.97-1.49-2.04-12.87-1.68-16.39
					c0.07-0.65,0.12-1.03,0.12-1.03s15.66-12.52,17.81-2.93c0.07,0.3,0.15,0.59,0.23,0.88v0.01c2.72,8.97,14.87,13.05,21.88,14.18
					C355.54,927.12,356.93,930.25,357.29,931.81z"/>
				<path class="st19" d="M240.36,931.81h-16.8c-3.52,0-7.43-3.53-8.41-9.98c-0.98-6.46-8.22-9.98-9.78-15.26
					c-1.57-5.28,6.46-12.72,6.46-12.72l1.34-1.72l1.4-1.8l13.31,3.13c0,0,0.33,3.17,0.53,7.2c0.14,2.91,0.22,6.28,0.05,9.24
					c-0.39,7.05,1.97,14.63,8.23,16C242.95,927.26,240.36,931.81,240.36,931.81z"/>
				<path class="st18" d="M348.31,675.06c0,0-2.38,29.67-5.17,65.32c-3.8,48.44-8.37,107.94-8.82,119.21
					c-0.78,19.57-3.92,50.88-3.92,50.88s-7.43,7.44-22.31,4.3c0,0-13.26-44.69-17.04-91.98c-0.06-0.78-0.12-1.56-0.18-2.34
					c-3.52-48.14-9-149.51-9-149.51L348.31,675.06z"/>
				<path class="st18" d="M336.31,680.91c0,0,4.68,10.67-3.88,45.4c-6.28,25.48-41.38,96.48-41.38,96.48
					c-0.06-0.78-0.12-1.56-0.18-2.34c-3.52-48.14-9-149.51-9-149.51L336.31,680.91z"/>
				<path class="st18" d="M339.46,673.08c0,0-44.86,112.93-73.04,163.42c-28.18,50.49-36.99,64.58-36.99,64.58
					s-16.14-6.46-17.61-10.86c0,0,10.78-97.47,29.65-121.23c10.66-13.43,23.19-53.72,23.78-67.81c0.59-14.09,3.82-41.98,3.82-41.98
					L339.46,673.08z"/>
				<path class="st8" d="M341.74,678.19c-6.05-1.71-67.75-25.89-66.55-29.39c4.18-12.17,8.5-32.71,13.66-57.69
					c0.97-4.65,2.06-9.23,3.24-13.71c3.09-11.67,6.87-22.63,11.17-32.22c7.98-17.82,20.95-29.91,31.32-34.04
					c1.35-0.51,4.18,3.76,9.73,8.64c5.13,4.5,10.46,4.42,16.35,4.79l4.76,8.43c3.85,7.31,7.14,17.56,7.57,25.91
					C372.99,558.91,342.28,678.33,341.74,678.19z"/>
				<path class="st18" d="M372.99,558.91l-18.46-1.99l-45.71,55.45c-6.56,7.96-17.39,10.99-27.14,7.59l0,0l-12.62,39.24l77.56,25.04
					L372.99,558.91z"/>
				<path class="st18" d="M343.26,532.31c-2.69-5.08-11.89-19.68-11.89-19.68s1.14-0.61,1.54-0.8c0.41-0.19,1.67-0.69,1.67-0.69
					c1.83,0.23,11.55,14.74,14.57,20.18c3.64,6.55,12.38,26.37,12.38,26.37l-7-0.77C354.53,556.92,346.43,538.29,343.26,532.31z"/>
			</g>
			<g>
				<path class="st18" d="M369.31,673.62c0,0,4.6,2.43,7.34,2.3c2.74-0.12,4.66,0.31,8.72,1.18c4.06,0.87,4.23,2.24,1.21,2.91
					c-3.02,0.67-6.43-0.62-4.9,1.01c1.53,1.63,16.03,3.02,15.85,4.87c-0.18,1.85-13.36,7.19-18.19,5.51
					c-4.83-1.68-16.1-11.55-16.1-11.55L369.31,673.62z"/>
				<path class="st8" d="M368.66,679.56c4.18-3.25,3.01-5.88,3.01-5.88s-28.57-46.53-30.55-50.9c-1.97-4.36,2.26-60.56,2.26-60.56
					s2.6-22.41-8.35-29.06c-9.52-5.78-12.66-10.51-19.5-6.29c-8.16,5.03-15.16,23.8-13.45,33.23c3.85,21.16,8.81,61.27,12.69,69.4
					c8.63,18.1,46.97,53.17,46.97,53.17S365.38,682.11,368.66,679.56z"/>
			</g>
			<g>
				<path class="st18" d="M1022.65,522.06c0,0-15.69,12.82-30.84,3.39c0,0-1.92-9.16-0.8-15.44c0.14-0.77,0.27-1.52,0.39-2.24
					c1.24-7.08,1.74-11.08,1.74-11.08s0.01,0,0.02,0c0.8-0.17,26.91-5.58,26.74-4.76C1015.91,510.95,1022.65,522.06,1022.65,522.06z
					"/>
				<path class="st18" d="M1016.61,496.03c-3.15,3.89-12.76,10.87-25.21,11.74c1.24-7.08,1.74-11.08,1.74-11.08s0.01,0,0.02,0
					C993.87,496.63,1017.55,494.88,1016.61,496.03z"/>
				<path class="st18" d="M988.21,495c0,0,26.06,11.52,32.99-4.82c6.93-16.34,14.95-25.86-1.39-33.91
					c-16.35-8.05-22.24-3.19-25.88,1.7C990.28,462.87,981.61,491.59,988.21,495z"/>
				<path class="st20" d="M1019.39,494.65c0.33,0.31,5.86,3.21,21.12-16.84c2.4-3.15,4.99-10.44,2.17-17.84
					c-2.82-7.4-16.26-15.33-27.81-19.85c-11.55-4.52-15.69,1.68-19.78,7.93c-4.29,6.55-13.94,10.81-13.94,10.81
					c9.25,7.71,23.23,1.79,27.29,3.95c4.05,2.16,4.3,9.24,4.22,11.48c-0.09,2.24,0.07,4.14,5.86,3.21c5.78-0.93,1.01,8.14-0.2,9.82
					C1018.31,487.31,1016.66,492.08,1019.39,494.65z"/>
				<path class="st19" d="M1059.28,929.91h16.8c3.52,0,7.43-3.53,8.41-9.98c0.98-6.46,8.22-9.98,9.78-15.26
					c1.57-5.28-6.46-12.72-6.46-12.72l-1.34-1.72l-1.4-1.8l-13.3,3.13c0,0-0.33,3.17-0.53,7.2c-0.14,2.91-0.22,6.28-0.05,9.24
					c0.39,7.05-1.97,14.63-8.23,16C1056.69,925.36,1059.28,929.91,1059.28,929.91z"/>
				<path class="st19" d="M942.35,929.91h44.52c0.43-0.08,0.75-0.18,0.95-0.27c2.97-1.49,2.04-12.87,1.68-16.39
					c-0.07-0.65-0.12-1.03-0.12-1.03s-15.66-12.52-17.81-2.93c-0.07,0.3-0.15,0.59-0.23,0.88v0.01
					c-2.72,8.97-14.87,13.05-21.88,14.18C944.1,925.22,942.7,928.34,942.35,929.91z"/>
				<path class="st18" d="M951.32,673.15c0,0,2.38,29.67,5.17,65.32c3.8,48.44,8.37,107.94,8.82,119.21
					c0.78,19.57,3.92,50.88,3.92,50.88s7.43,7.44,22.31,4.3c0,0,13.26-44.69,17.04-91.98c0.06-0.78,0.12-1.56,0.18-2.34
					c3.52-48.14,9-149.51,9-149.51L951.32,673.15z"/>
				<path class="st18" d="M960.18,671.18c0,0-1.54,18.51,7.02,53.24c6.28,25.48,41.38,96.48,41.38,96.48
					c0.06-0.78,0.12-1.56,0.18-2.34c3.52-48.14,9-149.51,9-149.51L960.18,671.18z"/>
				<path class="st18" d="M960.18,671.18c0,0,44.86,112.93,73.04,163.42c28.18,50.49,36.99,64.58,36.99,64.58
					s16.14-6.46,17.61-10.86c0,0-10.78-97.47-29.65-121.23c-10.66-13.43-23.19-53.72-23.78-67.81c-0.59-14.09-3.82-41.98-3.82-41.98
					L960.18,671.18z"/>
				<path class="st8" d="M957.92,669.04c6.28,0.38,72.5-2.12,72.52-5.82c0.06-12.86,2.75-33.69,6.11-58.97
					c0.61-4.71,1.1-9.39,1.46-14.01c0.93-12.04,0.97-23.63,0.07-34.1c-1.67-19.45-9.93-35.14-18.36-42.46
					c-1.11-0.92-5.19,2.17-12.04,4.95c-6.32,2.56-11.33,0.72-17.02-0.86l-7.27,6.4c-6.05,5.64-12.52,14.23-15.68,21.97
					C967.71,546.13,957.37,669.01,957.92,669.04z"/>
				<path class="st18" d="M967.71,546.13l18.09,4.21l24.89,67.41c3.57,9.68,12.8,16.11,23.12,16.11l0,0l-2.18,33.28l-80.31,6.02
					L967.71,546.13z"/>
				<path class="st8" d="M896.59,640.76c-1.29-5.14,1.25-6.49,1.25-6.49s51.18-19.03,55.42-21.25c4.24-2.22,35.55-49.08,35.55-49.08
					s11.77-19.25,24.49-17.74c11.06,1.32,16.62,8.76,19.4,16.31c3.32,8.99,0.71,19.1-6.45,25.46
					c-16.07,14.29-48.31,42.56-56.38,46.58c-17.95,8.94-69.75,12.92-69.75,12.92S897.61,644.8,896.59,640.76z"/>
				<path class="st18" d="M1004.55,530.81c4.21-3.91,17.71-14.66,17.71-14.66s-1.06-1.14-1.45-1.52c-0.25-0.24-1.09-0.95-1.09-0.95
					c-1.8-0.38-15.76,10.12-20.41,14.26c-5.6,4.98-20.63,20.74-20.63,20.74l7.12,1.66C985.8,550.33,999.59,535.41,1004.55,530.81z"
					/>
			</g>
		</g>
		<g>
			<path class="st21" d="M903.86,720.23v5.33c0,1.87-0.6,3.39-1.34,3.39H708.03c-0.74,0-1.34-1.52-1.34-3.39v-5.33
				c0-1.86,0.6-3.39,1.34-3.39h194.49C903.25,716.84,903.86,718.36,903.86,720.23z"/>
			<path class="st22" d="M903.86,720.23v5.33c0,1.87-0.55,3.39-1.23,3.39h-154.4c-0.68,0-1.23-1.52-1.23-3.39v-5.33
				c0-1.86,0.55-3.39,1.23-3.39h154.4C903.3,716.84,903.86,718.36,903.86,720.23z"/>
			<rect x="716.56" y="728.95" class="st23" width="138.07" height="201.25"/>
			<rect x="755.25" y="728.95" class="st13" width="138.07" height="201.25"/>
			<g>
				<g>
					<path class="st3" d="M885.91,919.08H762.67V734.63h123.23V919.08z M764,917.75h120.57V735.96H764V917.75z"/>
				</g>
				<g>
					<rect x="763.34" y="795.65" class="st3" width="121.9" height="1.33"/>
				</g>
				<g>
					<rect x="763.34" y="857.86" class="st3" width="121.9" height="1.33"/>
				</g>
				<path class="st3" d="M836.78,746.53h-22.62c-1.1,0-2-0.9-2-2l0,0c0-1.1,0.9-2,2-2h22.62c1.1,0,2,0.9,2,2l0,0
					C838.78,745.63,837.88,746.53,836.78,746.53z"/>
				<path class="st3" d="M836.78,807.36h-22.62c-1.1,0-2-0.9-2-2l0,0c0-1.1,0.9-2,2-2h22.62c1.1,0,2,0.9,2,2l0,0
					C838.78,806.46,837.88,807.36,836.78,807.36z"/>
				<path class="st3" d="M836.78,870.77h-22.62c-1.1,0-2-0.9-2-2l0,0c0-1.1,0.9-2,2-2h22.62c1.1,0,2,0.9,2,2l0,0
					C838.78,869.87,837.88,870.77,836.78,870.77z"/>
			</g>
		</g>
		<g>
			
				<rect x="1133.12" y="786.68" transform="matrix(-1 -1.224647e-16 1.224647e-16 -1 2440.2808 1716.8715)" class="st10" width="174.04" height="143.5"/>
			
				<rect x="1220.14" y="786.68" transform="matrix(-1 -1.224647e-16 1.224647e-16 -1 2614.3157 1716.8715)" class="st13" width="174.04" height="143.5"/>
			<polygon class="st8" points="1133.22,893.79 1160.8,893.79 1158.37,886.03 1160.8,880.49 1133.22,880.49 			"/>
			<polygon class="st24" points="1220.14,831.09 1247.72,831.09 1245.29,823.33 1247.72,817.79 1220.14,817.79 			"/>
			<polygon class="st8" points="1220.14,817.79 1192.56,817.79 1194.99,825.55 1192.56,831.09 1220.14,831.09 			"/>
			<polygon class="st24" points="1394.18,895.33 1366.6,895.33 1369.03,903.09 1366.6,908.64 1394.18,908.64 			"/>
			<rect x="1332.7" y="796.41" class="st13" width="50.08" height="19.48"/>
		</g>
		<g>
			<rect x="1227.61" y="703.46" class="st18" width="100.84" height="83.15"/>
			<rect x="1177.19" y="703.46" class="st18" width="100.84" height="83.15"/>
			<polygon class="st18" points="1328.39,765.52 1312.41,765.52 1313.82,761.02 1312.41,757.81 1328.39,757.81 			"/>
			<polygon class="st18" points="1278.03,729.19 1262.05,729.19 1263.46,724.69 1262.05,721.48 1278.03,721.48 			"/>
			<polygon class="st18" points="1278.03,721.48 1294.01,721.48 1292.6,725.97 1294.01,729.19 1278.03,729.19 			"/>
			<polygon class="st18" points="1177.18,766.41 1193.16,766.41 1191.76,770.91 1193.16,774.12 1177.18,774.12 			"/>
		</g>
		<g>
			<rect x="1317.16" y="831.09" class="st18" width="120.18" height="99.09"/>
			<rect x="1257.07" y="831.09" class="st18" width="120.18" height="99.09"/>
			<polygon class="st18" points="1437.26,905.06 1418.22,905.06 1419.9,899.7 1418.22,895.87 1437.26,895.87 			"/>
			<polygon class="st18" points="1377.24,861.76 1358.2,861.76 1359.88,856.4 1358.2,852.57 1377.24,852.57 			"/>
			<polygon class="st18" points="1377.24,852.57 1396.29,852.57 1394.61,857.93 1396.29,861.76 1377.24,861.76 			"/>
			<polygon class="st18" points="1257.07,906.12 1276.11,906.12 1274.43,911.48 1276.11,915.31 1257.07,915.31 			"/>
		</g>
		<g>
			<g>
				
					<rect x="1608.64" y="542.21" transform="matrix(-1 -1.224647e-16 1.224647e-16 -1 3317.7542 1167.2634)" class="st18" width="100.47" height="82.85"/>
				
					<rect x="1658.88" y="542.21" transform="matrix(-1 -1.224647e-16 1.224647e-16 -1 3418.2273 1167.2634)" class="st18" width="100.47" height="82.85"/>
				<polygon class="st18" points="1608.7,604.04 1624.62,604.04 1623.22,599.56 1624.62,596.36 1608.7,596.36 				"/>
				<polygon class="st18" points="1658.88,567.85 1674.8,567.85 1673.4,563.37 1674.8,560.17 1658.88,560.17 				"/>
				<polygon class="st18" points="1658.88,560.17 1642.96,560.17 1644.36,564.65 1642.96,567.85 1658.88,567.85 				"/>
				<polygon class="st18" points="1759.35,604.93 1743.43,604.93 1744.83,609.41 1743.43,612.61 1759.35,612.61 				"/>
				<rect x="1723.86" y="547.83" class="st13" width="28.91" height="11.25"/>
			</g>
			<path class="st18" d="M1711.95,621.53c2.44-1.59,7.97-5.06,8.21-4.23c0.18,0.6-0.15,1.59-0.83,2.61c3.3-1.09,6.64-1.76,14.4,0.04
				c1.55,0.36,2.94,1.31,3.75,2.68c0.75,1.27,0.99,2.84-1.06,4c-4.09,2.33-2.87,0.88-8.56,4.28c-5.69,3.4-12.51,4.06-16.47,1.37
				l-5.41-1.12l-0.33-8.98C1705.66,622.18,1708.78,621.93,1711.95,621.53z"/>
			<path class="st18" d="M1571.12,529.06c0,0,15.43,12.61,30.33,3.33c0,0,1.89-9.01,0.78-15.19c-0.14-0.76-0.26-1.5-0.38-2.2
				c-1.22-6.96-1.71-10.9-1.71-10.9s0,0-0.02,0c-0.79-0.17-26.47-5.49-26.3-4.68C1577.76,518.13,1571.12,529.06,1571.12,529.06z"/>
			<path class="st18" d="M1577.06,503.46c3.1,3.83,12.55,10.69,24.79,11.55c-1.22-6.96-1.71-10.9-1.71-10.9s0,0-0.02,0
				C1599.43,504.05,1576.14,502.33,1577.06,503.46z"/>
			<path class="st18" d="M1605,502.45c0,0-25.63,11.33-32.44-4.74c-6.81-16.07-14.71-25.43,1.37-33.35
				c16.08-7.91,21.88-3.14,25.46,1.67C1602.96,470.84,1611.49,499.09,1605,502.45z"/>
			<path class="st8" d="M1574.33,502.1c-0.32,0.3-5.76,3.16-20.77-16.56c-2.36-3.1-4.91-10.27-2.14-17.55
				c2.77-7.28,15.99-15.08,27.35-19.52c5.33-2.09,10.41-1.68,14.3-0.66c4.79,1.25,7.61,6.27,6.25,11.03
				c-2.15,7.52-7.48,12.14-14.22,11.94c-4.52-0.14-4.23,9.09-4.15,11.29c0.08,2.2-0.07,4.07-5.76,3.16
				c-4.87-0.78-2.12,5.65-0.49,8.55c0.81,1.43,1.26,3.05,1.16,4.69C1575.79,499.73,1575.4,501.09,1574.33,502.1z"/>
			<path class="st19" d="M1535.1,930.19h-16.52c-3.46,0-7.31-3.47-8.27-9.82c-0.96-6.35-8.08-9.82-9.62-15.01
				c-1.54-5.2,6.35-12.51,6.35-12.51l1.32-1.7l1.37-1.77l13.09,3.08c0,0,0.32,3.12,0.52,7.09c0.14,2.87,0.22,6.18,0.05,9.08
				c-0.39,6.93,1.94,14.39,8.1,15.74C1537.65,925.72,1535.1,930.19,1535.1,930.19z"/>
			<path class="st19" d="M1650.1,930.19h-43.79c-0.42-0.08-0.74-0.17-0.93-0.27c-2.92-1.46-2.01-12.66-1.66-16.12
				c0.07-0.64,0.12-1.02,0.12-1.02s15.4-12.32,17.52-2.89c0.07,0.29,0.14,0.58,0.23,0.87v0.01c2.67,8.82,14.62,12.83,21.52,13.95
				C1648.38,925.58,1649.75,928.65,1650.1,930.19z"/>
			<path class="st18" d="M1641.28,677.66c0,0-2.34,29.18-5.09,64.25c-3.74,47.64-8.23,106.16-8.67,117.25
				c-0.77,19.25-3.85,50.04-3.85,50.04s-7.31,7.32-21.94,4.23c0,0-13.04-43.96-16.76-90.47c-0.06-0.76-0.12-1.53-0.17-2.3
				c-3.46-47.35-8.85-147.05-8.85-147.05L1641.28,677.66z"/>
			<path class="st18" d="M1632.56,675.72c0,0,1.51,18.2-6.91,52.36c-6.18,25.06-40.7,94.89-40.7,94.89
				c-0.06-0.76-0.12-1.53-0.17-2.3c-3.46-47.35-8.85-147.05-8.85-147.05L1632.56,675.72z"/>
			<path class="st18" d="M1632.56,675.72c0,0-44.12,111.07-71.83,160.73c-27.72,49.66-36.38,63.52-36.38,63.52
				s-15.88-6.35-17.32-10.68c0,0,10.6-95.87,29.16-119.24c10.49-13.21,22.81-52.83,23.39-66.69c0.58-13.86,3.75-41.28,3.75-41.28
				L1632.56,675.72z"/>
			<path class="st8" d="M1634.78,673.62c-6.17,0.37-71.31-2.09-71.32-5.73c-0.06-12.65-2.7-33.13-6.01-58
				c-0.6-4.64-1.08-9.24-1.43-13.78c-0.91-11.84-0.95-23.24-0.07-33.54c1.64-19.13,9.77-34.56,18.06-41.76
				c1.09-0.91,5.1,2.14,11.84,4.87c6.22,2.52,11.14,0.71,16.74-0.85l7.15,6.29c5.95,5.54,12.32,13.99,15.42,21.61
				C1625.15,552.73,1635.33,673.58,1634.78,673.62z"/>
			<path class="st18" d="M1625.15,552.73l-17.79,4.14l-24.48,66.3c-3.52,9.52-12.59,15.85-22.74,15.85l0,0l2.15,32.73l78.99,5.92
				L1625.15,552.73z"/>
			<path class="st8" d="M1710.46,626.55c0.56-5.18-2.09-6.15-2.09-6.15s-52.44-11.61-56.87-13.2c-4.43-1.59-41.27-43-41.27-43
				s-14.07-17.16-26.26-13.96c-10.59,2.78-15,10.79-16.69,18.51c-2.02,9.21,1.89,18.7,9.73,23.93
				c17.59,11.75,52.83,34.92,61.23,37.74c18.7,6.28,69.7,3.14,69.7,3.14S1710.02,630.62,1710.46,626.55z"/>
			<path class="st18" d="M1588.93,537.66c-4.14-3.85-17.42-14.42-17.42-14.42l2.5-2.43c1.77-0.37,15.5,9.95,20.07,14.02
				c5.5,4.9,20.78,20.29,20.78,20.29l-7.49,1.74C1607.37,556.87,1593.81,542.19,1588.93,537.66z"/>
		</g>
		<g>
			<path class="st25" d="M594.07,155.86v69.53c0,0.4,0,0.79-0.01,1.19c-0.07,7.3-0.75,13.06-1.58,13.06h-0.23
				c-0.77,0-1.41-4.94-1.56-11.47c-0.01-0.55-0.01-1.11-0.02-1.68v-0.12c-0.01-0.33-0.01-0.66-0.01-0.98v-69.47
				C591.8,155.89,592.94,155.87,594.07,155.86z"/>
			<g>
				<path class="st18" d="M592.37,216.29c-32.01,0-57.96,27.44-57.96,61.28h115.91C650.33,243.72,624.38,216.29,592.37,216.29z"/>
				<path class="st18" d="M596.99,217.03c-1.66-0.36-3.36-0.55-5.09-0.55c-20.85,0-37.76,27.35-37.76,61.09h10.18
					C564.31,246.62,578.54,221.06,596.99,217.03z"/>
			</g>
		</g>
		<polygon class="st8" points="546.02,678.66 551.98,709.14 539.12,710.22 524.61,680.55 		"/>
		<path class="st26" d="M1806.28,934.27H139.89c-0.85,0-1.55-0.7-1.55-1.55v-0.99c0-0.85,0.7-1.55,1.55-1.55h1666.39
			c0.85,0,1.55,0.7,1.55,1.55v0.99C1807.83,933.58,1807.13,934.27,1806.28,934.27z"/>
	</g>
</g>
</svg>
