<svg id="Layer_1_copy" data-name="Layer 1 copy" xmlns="http://www.w3.org/2000/svg" xmlns:xlink="http://www.w3.org/1999/xlink" viewBox="0 0 37.5 37.5"><defs><style>.cls-1{fill-rule:evenodd;fill:url(#linear-gradient);}.cls-2{fill:#fff;}</style><linearGradient id="linear-gradient" x1="3" y1="21.75" x2="40.5" y2="21.75" gradientUnits="userSpaceOnUse"><stop offset="0" stop-color="#0fcae3"/><stop offset="1" stop-color="#657de9"/></linearGradient></defs><path class="cls-1" d="M16.46,3H27c4.68,0,6.38.49,8.09,1.4a9.61,9.61,0,0,1,4,4c.91,1.71,1.4,3.41,1.4,8.09V27c0,4.68-.49,6.38-1.4,8.09a9.61,9.61,0,0,1-4,4c-1.71.91-3.41,1.4-8.09,1.4H16.46c-4.68,0-6.38-.49-8.09-1.4a9.61,9.61,0,0,1-4-4C3.49,33.42,3,31.72,3,27V16.46c0-4.68.49-6.38,1.4-8.09a9.61,9.61,0,0,1,4-4C10.08,3.49,11.78,3,16.46,3Z" transform="translate(-3 -3)"/><path class="cls-2" d="M31.19,26.57a11.15,11.15,0,0,0,1.37-7A10.91,10.91,0,1,0,19.69,31.9a10.74,10.74,0,0,0,7.52-1.3,1,1,0,0,1,.8-.09L32.28,32a.2.2,0,0,0,.25-.25L31.1,27.37A1,1,0,0,1,31.19,26.57Z" transform="translate(-3 -3)"/></svg>