<svg id="Layer_1" data-name="Layer 1" xmlns="http://www.w3.org/2000/svg" xmlns:xlink="http://www.w3.org/1999/xlink" viewBox="0 0 37.5 37.5"><defs><style>.cls-1{isolation:isolate;}.cls-2{fill-rule:evenodd;fill:url(#linear-gradient);}.cls-3{fill:#fff;}.cls-4{fill:none;}</style><linearGradient id="linear-gradient" x1="3" y1="21.75" x2="40.5" y2="21.75" gradientUnits="userSpaceOnUse"><stop offset="0" stop-color="#0fcae3"/><stop offset="1" stop-color="#657de9"/></linearGradient></defs><g class="cls-1"><path class="cls-2" d="M16.46,3H27c4.68,0,6.38.49,8.09,1.4a9.61,9.61,0,0,1,4,4c.91,1.71,1.4,3.41,1.4,8.09V27c0,4.68-.49,6.38-1.4,8.09a9.61,9.61,0,0,1-4,4c-1.71.91-3.41,1.4-8.09,1.4H16.46c-4.68,0-6.38-.49-8.09-1.4a9.61,9.61,0,0,1-4-4C3.49,33.42,3,31.72,3,27V16.46c0-4.68.49-6.38,1.4-8.09a9.61,9.61,0,0,1,4-4C10.08,3.49,11.78,3,16.46,3Z" transform="translate(-3 -3)"/></g><path class="cls-3" d="M22.14,19.22a.82.82,0,0,0-.13,1l1.09-1.09-.07,0A.78.78,0,0,0,22.14,19.22Z" transform="translate(-3 -3)"/><path class="cls-3" d="M20.65,24.56a1,1,0,0,0,1-.27.89.89,0,0,0,.09-1.14l-1.34,1.34Z" transform="translate(-3 -3)"/><path class="cls-3" d="M33.52,8.83,20.91,9a1.11,1.11,0,0,0-.79.33L6.43,23a1.18,1.18,0,0,0-.33.81,1.15,1.15,0,0,0,.33.8L18.9,37.07a1.15,1.15,0,0,0,1.61,0L34.19,23.38a1.11,1.11,0,0,0,.33-.79L34.67,10h0a1.13,1.13,0,0,0-1.13-1.13Zm-12.36,27L7.64,22.34l.7-.7L21.86,35.16Zm1.07-1.07L8.71,21.27l.35-.35L22.58,34.44Zm4.51-13.1a.36.36,0,0,1-.11.3.38.38,0,0,1-.39.09l-1.19-.27h0a1,1,0,0,1-.28-.16.64.64,0,0,1-.2-.41,2.86,2.86,0,0,0-.15-.74L23.2,21.73a4.1,4.1,0,0,1,1,2.83,2.31,2.31,0,0,1-.75,1.49,2.71,2.71,0,0,1-2.58.72A4.71,4.71,0,0,1,19,25.91l-.61.6a.48.48,0,0,1-.7,0l-.65-.65a.5.5,0,0,1,0-.71l.6-.6a4.92,4.92,0,0,1-.91-2.26,4.55,4.55,0,0,1,0-1.38.41.41,0,0,1,.11-.27.41.41,0,0,1,.43-.09l1.05.27h0a.82.82,0,0,1,.25.14.49.49,0,0,1,.15.43,3.67,3.67,0,0,0,.32,1.77l1.52-1.53a3.82,3.82,0,0,1-.89-2.81,2.51,2.51,0,0,1,.68-1.38A2.64,2.64,0,0,1,23.44,17a4.26,4.26,0,0,1,1.17.65l.67-.67a.51.51,0,0,1,.71,0l.65.65a.51.51,0,0,1,0,.71L26,19A4.14,4.14,0,0,1,26.74,21.69Z" transform="translate(-3 -3)"/><rect class="cls-4" x="14.25" y="19.19" width="0.99" height="19.13" transform="translate(-19.01 15.85) rotate(-45)"/><rect class="cls-4" x="15.4" y="18.29" width="0.5" height="19.12" transform="translate(-18.11 16.22) rotate(-45)"/><path class="cls-4" d="M26.64,17.58,26,16.93a.51.51,0,0,0-.71,0l-.67.67A4.26,4.26,0,0,0,23.44,17a2.64,2.64,0,0,0-3.07.49,2.51,2.51,0,0,0-.68,1.38,3.82,3.82,0,0,0,.89,2.81l-1.52,1.53a3.67,3.67,0,0,1-.32-1.77.49.49,0,0,0-.15-.43.82.82,0,0,0-.25-.14h0l-1.05-.27a.41.41,0,0,0-.43.09.41.41,0,0,0-.11.27,4.55,4.55,0,0,0,0,1.38,4.92,4.92,0,0,0,.91,2.26l-.6.6a.5.5,0,0,0,0,.71l.65.65a.48.48,0,0,0,.7,0l.61-.6a4.71,4.71,0,0,0,1.85.86,2.71,2.71,0,0,0,2.58-.72,2.31,2.31,0,0,0,.75-1.49,4.1,4.1,0,0,0-1-2.83l1.22-1.23a2.86,2.86,0,0,1,.15.74.64.64,0,0,0,.2.41,1,1,0,0,0,.28.16h0l1.19.27a.38.38,0,0,0,.39-.09.36.36,0,0,0,.11-.3A4.14,4.14,0,0,0,26,19l.69-.69A.51.51,0,0,0,26.64,17.58Zm-4.95,6.71a1,1,0,0,1-1,.27l-.21-.07,1.34-1.34A.89.89,0,0,1,21.69,24.29ZM22,20.2a.54.54,0,0,1,.13-.77,1,1,0,0,1,.89-.1l.07,0Z" transform="translate(-3 -3)"/></svg>