<?xml version="1.0" encoding="utf-8"?>
<!-- Generator: Adobe Illustrator 25.2.1, SVG Export Plug-In . SVG Version: 6.00 Build 0)  -->
<svg version="1.1" id="Layer_6" xmlns="http://www.w3.org/2000/svg" xmlns:xlink="http://www.w3.org/1999/xlink" x="0px" y="0px"
	 viewBox="0 0 43.5 43.5" style="enable-background:new 0 0 43.5 43.5;" xml:space="preserve">
<style type="text/css">
	.st0{fill:#FFFFFF;}
	.st1{fill:#FF3333;}
</style>
<g>
	<g>
		<defs>
			<path id="SVGID_1_" d="M16.5,3H27c4.7,0,6.4,0.5,8.1,1.4c1.7,0.9,3.1,2.3,4,4c0.9,1.7,1.4,3.4,1.4,8.1V27c0,4.7-0.5,6.4-1.4,8.1
				c-0.9,1.7-2.3,3.1-4,4c-1.7,0.9-3.4,1.4-8.1,1.4H16.5c-4.7,0-6.4-0.5-8.1-1.4c-1.7-0.9-3.1-2.3-4-4C3.5,33.4,3,31.7,3,27V16.5
				c0-4.7,0.5-6.4,1.4-8.1c0.9-1.7,2.3-3.1,4-4C10.1,3.5,11.8,3,16.5,3z"/>
		</defs>
		<use xlink:href="#SVGID_1_"  style="overflow:visible;fill-rule:evenodd;clip-rule:evenodd;fill:#FF3333;"/>
		<clipPath id="SVGID_2_">
			<use xlink:href="#SVGID_1_"  style="overflow:visible;"/>
		</clipPath>
	</g>
</g>
<g>
	<g>
		<g>
			<g>
				<g>
					<path class="st0" d="M11.9,34.6C11.9,34.6,11.9,34.6,11.9,34.6C11.9,34.6,11.9,34.6,11.9,34.6z"/>
					<path class="st0" d="M12.9,35.2c-0.1-0.1-0.3-0.2-0.4-0.2C12.6,35,12.7,35.1,12.9,35.2z"/>
					<path class="st0" d="M13.5,35.5c-0.1,0-0.1-0.1-0.2-0.1C13.3,35.4,13.4,35.5,13.5,35.5z"/>
					<path class="st0" d="M12.5,34.9c-0.2-0.1-0.4-0.2-0.5-0.3C12.1,34.7,12.3,34.8,12.5,34.9z"/>
					<path class="st0" d="M13.3,35.4c-0.1-0.1-0.3-0.2-0.4-0.2C13,35.2,13.1,35.3,13.3,35.4z"/>
					<path class="st0" d="M11.3,34.1c0,0,0.2,0.2,0.6,0.5C11.7,34.4,11.5,34.3,11.3,34.1C11.3,34.1,11.3,34.1,11.3,34.1z"/>
				</g>
				<g>
					<path class="st0" d="M29,15.4c-0.2,0-0.3,0-0.5,0.2c-0.3-4.1-3-5.9-6.5-5.9c-0.1,0-0.2,0-0.3,0c-3.3,0.1-6.1,2-6.5,6
						c-0.2-0.2-0.4-0.4-0.6-0.4c-0.4,0-0.7,0.9-0.6,1.8c0.1,1,0.5,1.7,1,1.7c0.1,0,0.3-0.1,0.4-0.3c0.7,3.7,3.3,6.4,6.3,6.5
						c0.1,0,0.1,0,0.2,0c3,0,5.6-2.6,6.4-6.1c0.1,0,0.1,0.1,0.2,0.1c0.5,0.1,1-0.7,1.1-1.6C29.7,16.3,29.4,15.4,29,15.4z"/>
				</g>
			</g>
		</g>
		<g>
			<g>
				<path class="st0" d="M28.5,27.3v3.1h-2.3V26c-0.2-0.1-0.5-0.1-0.7-0.2L25,25.3c-0.9,0.4-1.9,0.7-3.1,0.7c-1.2,0-2.4-0.3-3.2-0.7
					l-0.5,0.6l0.1,0.1c-0.2,0-0.5,0.1-0.8,0.2v4.2H15v-3.1c-1.6,1.2-3.4,3.2-3.8,6.8c0.2,0.2,0.4,0.3,0.6,0.5c0,0,0,0,0,0
					c0.2,0.1,0.4,0.2,0.5,0.3c0.1,0.1,0.2,0.1,0.4,0.2c0.1,0.1,0.3,0.2,0.4,0.2c0.1,0,0.1,0.1,0.2,0.1c0.4,0.2,0.7,0.4,1.1,0.5v-5.3
					h14.8v5.3c1-0.5,2-1,3-1.7c0,0,0,0,0,0C32.3,34.4,31.6,29.8,28.5,27.3z"/>
			</g>
		</g>
	</g>
</g>
<g>
	<path class="st1" d="M29.4,13.1L29.4,13.1c-0.2-0.7-1.3-4-3.9-5.8l-1,3.3c-0.1-1.8,0.1-3.3,0.3-3.9c-0.9-0.4-1.9-0.7-3-0.6v8.6h0V6
		c-1.2,0-2.2,0.2-3,0.6c0.2,0.7,0.5,2.1,0.3,3.9l-1-3.3c-2.7,1.7-3.7,5.1-3.9,5.8l0,0c0,0-1,0.1-1.2,1.7l3.3,1.6h5.5h0.2h5.5
		l3.3-1.6C30.4,13.2,29.4,13.1,29.4,13.1z"/>
</g>
<g>
	<path class="st0" d="M29.4,12.6L29.4,12.6c-0.2-0.7-1.3-4-3.9-5.8l-1,3.3c-0.1-1.8,0.1-3.3,0.3-3.9c-0.9-0.4-1.9-0.7-3-0.6V14h0
		V5.5c-1.2,0-2.2,0.2-3,0.6c0.2,0.7,0.5,2.1,0.3,3.9l-1-3.3c-2.7,1.7-3.7,5.1-3.9,5.8l0,0c0,0-1,0.1-1.2,1.7l3.3,1.6h5.5h0.2h5.5
		l3.3-1.6C30.4,12.6,29.4,12.6,29.4,12.6z"/>
</g>
</svg>
