<svg id="Layer_1" data-name="Layer 1" xmlns="http://www.w3.org/2000/svg" xmlns:xlink="http://www.w3.org/1999/xlink" viewBox="0 0 786.48 786.48"><defs><style>.cls-1{opacity:0.9;}.cls-2,.cls-3,.cls-4,.cls-5{fill-rule:evenodd;}.cls-2{fill:url(#linear-gradient);}.cls-3{fill:url(#linear-gradient-2);}.cls-5{fill:url(#linear-gradient-3);}</style><linearGradient id="linear-gradient" x1="28.98" y1="402.24" x2="799.5" y2="402.24" gradientUnits="userSpaceOnUse"><stop offset="0.32" stop-color="#f83251"/><stop offset="1" stop-color="#ee2542"/></linearGradient><linearGradient id="linear-gradient-2" x1="102.91" y1="803.85" x2="103.91" y2="802.85" gradientTransform="matrix(253.57, 543.78, 543.78, -253.57, -462658.4, 147876.81)" xlink:href="#linear-gradient"/><linearGradient id="linear-gradient-3" x1="102.84" y1="803.93" x2="103.84" y2="802.93" gradientTransform="matrix(524.77, 290.89, 290.89, -524.77, -287524.3, 391960.68)" gradientUnits="userSpaceOnUse"><stop offset="0" stop-color="#0fcae3"/><stop offset="1" stop-color="#657de9"/></linearGradient></defs><g class="cls-1"><path id="b" class="cls-2" d="M581,50,791.25,500.88c7.53,16.16,8.59,22.8,8.18,30.18a36.32,36.32,0,0,1-7.31,20.09c-4.44,5.92-9.51,10.34-25.67,17.87L315.61,779.25c-16.16,7.54-22.8,8.58-30.19,8.18a36.32,36.32,0,0,1-20.09-7.31c-5.91-4.44-10.33-9.51-17.87-25.67L37.24,303.61c-7.54-16.16-8.59-22.81-8.18-30.19a36.24,36.24,0,0,1,7.31-20.09C40.8,247.41,45.88,243,62,235.47L512.88,25.24c16.16-7.54,22.8-8.59,30.18-8.19a36.33,36.33,0,0,1,20.09,7.32C569.07,28.8,573.48,33.88,581,50Z" transform="translate(-19.59 -8.59)"/><path id="b-2" data-name="b" class="cls-3" d="M581,50,791.25,500.88c7.53,16.16,8.59,22.8,8.18,30.18a36.32,36.32,0,0,1-7.31,20.09c-4.44,5.92-9.51,10.34-25.67,17.87L315.61,779.25c-16.16,7.54-22.8,8.58-30.19,8.18a36.32,36.32,0,0,1-20.09-7.31c-5.91-4.44-10.33-9.51-17.87-25.67L37.24,303.61c-7.54-16.16-8.59-22.81-8.18-30.19a36.24,36.24,0,0,1,7.31-20.09C40.8,247.41,45.88,243,62,235.47L512.88,25.24c16.16-7.54,22.8-8.59,30.18-8.19a36.33,36.33,0,0,1,20.09,7.32C569.07,28.8,573.48,33.88,581,50Z" transform="translate(-19.59 -8.59)"/><path id="e" class="cls-4" d="M340.73,18.86,775.81,260c15.59,8.64,20.35,13.4,24.36,19.61a36.35,36.35,0,0,1,5.89,20.55c-.11,7.39-1.62,13.95-10.26,29.54L554.63,764.81C546,780.4,541.23,785.16,535,789.17a36.36,36.36,0,0,1-20.56,5.89c-7.39-.11-13.94-1.62-29.54-10.26L49.85,543.63C34.26,535,29.5,530.23,25.49,524a36.37,36.37,0,0,1-5.9-20.56c.12-7.39,1.63-13.94,10.27-29.54L271,38.85c8.64-15.6,13.4-20.35,19.61-24.36a36.36,36.36,0,0,1,20.55-5.9c7.4.11,13.95,1.63,29.54,10.27Z" transform="translate(-19.59 -8.59)"/><path id="e-2" data-name="e" class="cls-5" d="M340.73,18.86,775.81,260c15.59,8.64,20.35,13.4,24.36,19.61a36.35,36.35,0,0,1,5.89,20.55c-.11,7.39-1.62,13.95-10.26,29.54L554.63,764.81C546,780.4,541.23,785.16,535,789.17a36.36,36.36,0,0,1-20.56,5.89c-7.39-.11-13.94-1.62-29.54-10.26L49.85,543.63C34.26,535,29.5,530.23,25.49,524a36.37,36.37,0,0,1-5.9-20.56c.12-7.39,1.63-13.94,10.27-29.54L271,38.85c8.64-15.6,13.4-20.35,19.61-24.36a36.36,36.36,0,0,1,20.55-5.9c7.4.11,13.95,1.63,29.54,10.27Z" transform="translate(-19.59 -8.59)"/></g></svg>